<mxfile host="65bd71144e">
    <diagram id="jGcUvKGWMhlIulX7GgRM" name="Page-1">
        <mxGraphModel dx="306" dy="523" grid="0" gridSize="10" guides="0" tooltips="1" connect="1" arrows="1" fold="1" page="1" pageScale="1" pageWidth="850" pageHeight="1100" background="#FFFFFF" math="0" shadow="0">
            <root>
                <mxCell id="0"/>
                <mxCell id="1" parent="0"/>
                <mxCell id="3" value="Load balancer" style="shape=image;verticalLabelPosition=bottom;verticalAlign=top;imageAspect=0;aspect=fixed;image=data:image/png,iVBORw0KGgoAAAANSUhEUgAAAlgAAAE7CAYAAAAB7v+1AAAAAXNSR0IArs4c6QAAAARnQU1BAACxjwv8YQUAAAAJcEhZcwAADsMAAA7DAcdvqGQAACBKSURBVHhe7d1rbFxnmcBxtw1NCGlDKcWUXkyBEgqlprd1WWhNL4mTJs7EaUugJPXHfPSX3XXu0+bipGnjNDfn1tiBRQYk1lotK7MSwkJaFFghGUSdcS6Op0nssR3bY1ragTbNnH3fmdfbjfM6tcdzOed5/z/pr7JaSGMfn2eemTk+UwQAAAAAcFx101BZddNI+dheaBqZbf4rAAAAblJLUalejJY3jVSvaBoJv3B0pO6Fo/E23YqjIzH1f3vZTP2Zx9J//kid/vctbxquSC9m0enmrwQAABAMaokp0cuMWaKa04uOfQkqZObv1az+njX6VTLz1wcAACg8/apQeplKvVpkXWaCU/oVr+VNI6HqpoFi8yUCAADkln6rb0VTvFYtIq0rjo4kLl9QZKW+vohauhqXNw0v461FAACQVfoVHb1orDgaj9sWERcyy2SzvoaMC+wBAEBG9HVJaqFoUItF1i9Al1G8hWULAAB8pOqmwTlqeahbcTTefeVCQeOXXrbMtxEAAGD0LcCR1isXB5pM+tW+1PVpvKoFAICb9BKgb1HAq1XZL329Vrxe37LCfLsBAIBk+kFfLQENLl+wnueauc8WAABCpRereKNlAaA8tOLoyDF9A1ZzOAAAQJDpG2aqB/iGsQ/4VLBa9b3EzOEBAABBoq+x0tcBmfs32R7oqbA1cLd4AAACQt9xXH90DddY+T99jNK/dchd4gEA8K3UhyynPt7F/oBO/kzf3kF/HI85jAAAwA/S11lxAXvQ0xfC65u9msMKAAAKRd9BnLcD5aSPJXeFBwCgQPQrHfoVD9uDNImolTvCAwCQR+lXrfjtQOmZa7O4dxYAALmkf9uMa62crIHfNAQAIAfMW4L8hqCj6WPPR+4AAJBFK5qGV/KWIOmfAW7nAADAFKXfEhxpHvtAS26nb05qfkQAAMBk6N8gW8FvCdK4xRu5LgsAgElIX28V77Y/sBKNFm/jVg4AAExAddNIOTcOpYmWvvh9pMT8+AAAgLH0BcxczE6TTS/k/IYhAAAW+sJl24Mn0UQyv2HITUkBABi1omkkbHvQJJpMLFkAABgsV5TN9JJV3TRSan68AABwD8sV5aL0NVksWQAAB7FcUS5jyQIAOIflivIRSxYAwBlquaqxPRgS5SKWLACAePo3vGwPgkS5TC1Z3dzxHQAgkn4VgZuIUuGKt5kfRQAAZKhuGihOvYpgfeAjylfxevMjCQBAsL3QFJ2+4ujIMfsDHlF+0x/HZH40AQAIrheOxltsD3REhSh9I9LBOebHEwCA4OF2DOTHuOgdABBY1U1DZVzUTj6u1fyoAgAQDPrVAS5qJ7+nX2E1P7IAAPifevBqHvtgRuS3+GBoAEBgLG8aqbY9mBH5sRVH4+36N13Njy8AAP6jfzuL664oaPFWIQDAt8z9riK2BzAiP8etGwAAvrWiKV5re/AiCkJqyTpmfpQBAPCH6qaRkuVHRxLqQUo/UBEFM/UkwfxIAwBQeCuOxlusD1hEAUo/SdBPFsyPNQAAhbO8aSSk8ohE1BhvMz/aAAAUhr6w/QeN8djyprh6cCKS0mDI/IgDAJB/zzfG63+gHpCIRNU43G5+xAEAyK/nm0ZK1YKVsD5AEQW87/MqFgCgENRy1fK8eiAiktj3eRULAJBv5tUrj0hy3zsyVGN+5AEAyL3vNcZbvq8egIhEdyQe43MKAQB5oV+9sj4YEQmMV7EAAHmhX71SeUROxKtYAIBce75poPR7jcPqgYfIoXgVCwCQS8uODLUuOzLsEbnUd18fjphTAACA7Hru0ECp7cGHyIkOD5abUwEAgOx57vXh+u+qBxoiF3vuyHCLORUAAMgOfZGvWrAStgceIhfSP//PNQ0Um1MCAICpe/bIUI16Bq+fxRM53GCtOSUAAJi6Z48Mt9sfcChXPfvvb3nP/mzE+v+jwvTs60Pd5pQAAGBqnjk8WP7s6/rBhfLR0t8nvCXnLnlLYl666Afe0rZ3rP9dKkCHhyvMqQEAQOaeOTzUrJ65qwcXynVVne9/uFiNqer0Re+ZX7xl/d9RHjs8xMXuAIDJ0Rez61esnjk0uFI9mNSp2tSClbjsAYZy0tJf/dW6WI2t6s/vec/8NG79Myj36fOBi90BAOMKNY2U6EXqGbVILVWL1NLDQzH1nz0qTFd79eqKei6l3kp85ofD1j+Lcps6X6rNaQQAcJ1+dWrp64OhpUeGGtSDRGTsgwYVtkktWKOZ67Nsfx7lLvVkpNmcVgAAF1UdGiqrOjwYXnp48Jh6UNAPDOTTqiIZLFijnbroVf3HW9Y/l3LQocE4HwANAI5ZenBwztLDw/VquYpZHxzIl01pwTLp67OW/iRu/fMpu+lrFc0pBwCQKrR/pCR06ELNksNDkSo1/Cl4LcnCgpWq55JX9buEV3V02Prvoeykn8SY0w8AIIl+iyJ0aKi66tBQm+0BgIJV1has0aIfeFW/fsf676Kpp5/MmFMRACBBqGlkdujwYHjJocHYksODatCTiCLv2RelqXbqorekZcT+76QpFdrfV2JOSwBAUD23d6BYDfX6JQcHE2q58khYuVqwRvvT370lPx62/7spo0IHLtSY0xMAEDT6onW1VDXaBjwJKtcLlq7nkhf67bvekiND9r8DTbILbeY0BQAEhX77YfGhoZaQGuQkv7wsWKNFP/CW/Nfb1r8HTaKDgwlzugIA/C51jdWhoTo9vK1DnUSW1wVrtBPve6GWEevfhybWooODc8ypCwDwq8pDA9WLDw3GVB65VUEWLFPoT3/3Qj8etv696OotOtgfMqcvAMBvKg/1ly0+OHjMNsDJjQq5YKXqueQt/u27XujIkPXvR/YqDw3VmdMYAOAX+u3ARQcHGysPqkFNThcq9II1WvQDb/Ev37b+HcnSgaEWczoDAPyg8sBAReXBCzGVGtTker5ZsEyhE+97i/9txPp3pQ9bdPBCtzmlAQCF9GhTdHrlgQt1tmFN7ua3BWu00J/+5i3+1yHr35nS6VeizekNACgE/RtHCw8MRNSzXv3Ml+j/8uuClarnklf523e9ytf1Rd32v7/LVTb0l5lTHACQb4sODtQuOnAhYRvQRL5esEZLXZ/1lvXv73ILD/RzR3cAyDf99sHCAxdaVGoQE9kLxIJl0tdnLfr5iPXrcLL9FxrM6Q4AyIeK/X0lagC3XzGQicYUpAVrtMV//Ju36EdD1q/HpZ4+wEfmAEDezG/oL1twYCCuhq8ewERXLYgLVipzfdbCw4PWr8uFFqgnUea0BwDk0vyGvmVP77+QsA1jIluBXbBMoegH3qJfvmX92qSnFqyYOfUBALmilqvaBQcG1NAlmniLA75gjbb4xPvewp/HrV+j5MzpDwDINn1/qwUNFxoX7FcDl2iSSVmwRtPXZz39w0Hr1yqyvQPFZhQAALJFL1fz9/e3Wgcv0QSStmCl6rnkLfrvd7ynD12wfs2Smnewd44ZBwCAbBhdruarIUuUaSIXLJO+Pmth61vWr1tKFfv7ys1IAABMFcsVZSvJC9Zo+vqsBT8btn79ga+hb5kZCwCAqdDLVYVarirUcCWaai4sWKNV/iHhzf/hoPX7ENj29a80owEAkKnUctWglqsGNViJspBLC5YudO6St/A373jzD16wfj8C176BsBkPAIBMzW0YaJmnhipRtnJtwRotdOait+A//2L9ngSpufsGuuftG2hW/wzP2ztQMW83F70DwKTM3d9fN6+hXw1Vouzl6oI1mv765/902Pq9CXT7+o7N29ff/NS+2EqWLgAYR2pI2oYo0RRzfcEarfIP73rzj16wfo8kNHdff7f6Z+Pchr5l3DsLAJQn9/SVz93bn1ADUg9JoqxWeZwFazR9fdbTv/mrN++AfuvN/v2S0lP7+iNP7e2rLWfZAuCiiv19JWoYxscOR6JsxYJ1Zfr6rPm/+Iv1+yW01rl7+6r1L9GY0QMAcj22c2T2k/pZphqARLmKBWv89Pdm3k+Hrd83ke3tT6h/Nj7V0F9mxhAAyKKfSapB13rZ8CPKQSxYH92iP7zrzWu6YP3+Ca7tiX39ITOSAECGJ/f0hZ/c2+8R5ToWrImlr89a8Ju/ek/tH7B+HwUXeWJvX7UZTQAQXE/t6i97ck9/wjLoiLIeC9bk0p9vOPcnw9bvpfC6n9jTX2PGFAAEi35rUD1b1M8YPaJ8VHn879ZFgsZPv5r1VNOA9fvpQJEn98YqzMgCgGB4fG9fg2WgEeUsFqzMevp371i/n670+J6+1vL9fSVmdAGAfz25K1bxxB41vIjyGAtWZi3uumj9fjrV7r7EE3v66x7bGZ1txhgA+Iu+2d/ju2Mx9axQPzMkylssWJm1+MxF6/fTydTsKt/TV27GGQD4x+O7+5utg4sox7FgZRYL1pXpV7O4WSkA3yjf3Rv6jhpORIVoEQtWRukFy/b9pL6Imml8uDSAwtLP9r6zO9au8ogKEQtWZqUWLMv3k1S7Yony13przZgDgPwr39VbU64GEsnqR7++4LX+z1Ag+ufo+9YFgq6eXrBsx54+7LFdsRbeMgSQd/rC9sd2x+K2wUTBrjM64r399tuBaNfAResCQVePBWtiqRnXrmedGXsAkHtq8NSr9AAiYbFgyU8vWLZjT1f26O7e7vKdPaVm9AFA7uhhYxtEJCMWLPmxYE2uR3fFEt/e3cuHRwPIrUd3x9pU6pkdSYwFS356wbIde/qoevjgaAC58e2dvaFHd/WqZ3QkNRYs+aUWLMuxpwm0kyULQA58a1dPy7fVkCG5sWDJTy9YtmNPE4slC0BW/ePOnlLbsCFZsWDJjwVr6rFkAcga/erVt9RgIdlFWLDEpxcs27GnyaWedLJkAZga/eqVbcCQvFiw5MeClb1YsgBMyTd3nW/4x9d6PJIfC5b89IJlO/Y0+b75Wk/iWzvPl5tRCQAT99DeaLEeIrbhQvJiwZIfC1Z2U/MxXrazr8SMTACYGDU86lV6iJADsWDJr1ItWLZjT5n3yGvnI4/tjM42YxMAPpoaHrGxw4TkxoIlPxasnNVqxiYAXN0ju85VPKIGB7kTC5b89IJlO/Y09dSSVW/GJwCM75H63sZHdqrBQc4U6WbBkl5qwbIce8pOZVz0DuBqHt0QnV5Wry/e1AODXIkFS356wbIde8pasYe2R4vNKAWAy5XtOLdMPRNTw4JcKtIdty4zfowFK7PSC5b9+FOWqj/fYkYpAFzuYTUg/kENCnIrFiz56QXLduwpuz1cf3alGacAkHbfzujsh3eeT9iGBsmOBUt+LFj5Sc/QB1+NzjFjFQCKih7eebbaNjBIfixY8mPByl8P7zx3zIxVAEi9Pdis8si9WLDkV9l10XrsKTc9tOPcMjNaAbju4R3n47ZBQfJjwZIfC1Z+e6j+fEz/VrYZrwBc9dDOnlI1EPRQIAdjwZKfXrBsx55y2I6eOjNiAbjqoR1na6wDgpyIBUt+LFj578H68wnujQU47sH6s60P1p9TA4FcjAVLfnrBsh17ym0P1J/l3liAq/R1Ag/sOJd4cIcaCORkLFjySy1YlmNPue+h7dFSM24BuOTBV86X24YCuRMLlvxYsArXAzt4FQtw0v07zoYfSA0BcjUWLPnpBct27Ck/3cerWIB71ILVYhsI5E4sWPJjwSp4DWbkAnDFN3aci9yvBgC5GwuW/PSCZTv2lJ/UnOU3CgGX6M8fvP9VNQDI6Viw5JdasCzHnvJavRm9AKR7YEe07BvqxCe3Y8GSn16wbMee8lqCu7sDjrj/lejKb7x6Vp345HIsWPJLL1j240/5q/TVaLUZvwAku+/Vc/WlqZOeXI4FS356wbIde8p7rWb8ApBMn+xjTn5yMBYs+bFg+ad7uNgdkE+d7LGxJz+5FwuW/Fiw/NN9r0ZrzQgGINV9r6iTnZyPBUt+esGyHXvKf19/5Wy7GcEAJCrdGi2xnfzkXixY8mPB8lf3vhqdY0YxAGnu2R4tVc+k9LMpcjwWLPnpBct27Klghc0oBiDN116JlltOenIwFiz5sWD5rO1n28woBiDN17dHq+995U2PiAVLfpVd71uPPRWsxO3cdBSQ6d6Xoyvv3a5OdHI+Fiz5pRYsy7GnwqXfRTDjGIAkX3s5Grad9OReLFjyY8HyYa+8yWcTAhJ9bfubDSqPiAVLfovUgmU79lTAXn6T2zUAEn11+5vN1pOenIsFS34sWP7svp3R2WYkA5DinpffbFRLlkfEgiU/vWDZjj0VumiFGckApFALVt1XX1YnODkfC5b8UguW5dhTYfvKtmiNGckApFAndq1asjwiFiz56QXLduypsH1l25sNZiQDkGLO1mj1PS9H1UlOrhfpHrYuM36MBSuz0guW/fhTIes+ZkYyACnUglX+FXWCE7FgyU8vWLZjTwVuW3fcjGQAUujPIrSe8ORcLFjyY8Hyb2oWF5uxDECCL2+NlsxRJzcRC5b89IJlO/ZU+O7mNwkBeeZsUyc4OV/kDAuW9FILluXYkw/aGq02IxmAFHdv7Y59WZ3g5HYsWPLTC5bt2JMvqjUjGYAUd2/rjlhOdnIsFiz5sWD5t7u3RsNmJAOQ4kvbulvu1ic4OR0Llvz0gmU79lT41BxuNCMZgBRf2nam9u5t3eokJ5djwZJfesGyH38qbPqJrhnJAKT4Qt3pii9tVSc4OR0Llvz0gmU79uSD6rrbzEgGIMWd26PF1hOenIoFS34sWD6u7ky3GckAJPli3ZnYF9VJTu7GgiU/vWDZjj35oTMRM44BSPKFrd2t9pOeXIkFS34sWP7tC7xFCMh019buOrVkeeRuLFjy0wuW7dhT4VMzmIvcAYm+uOV0SD2D0s+iyNFYsOSXWrAsx54K31113KYBEOnOLdE56gTXJzk52nEWLPHpBct27MkX1ZlxDECau+q64nfVnVEnOrkYC5b80guW/fhTgdtyhju5A1J9vu5Mo8ojN2PBkp9esGzHngpfyeaulWYUA5CmZEvXMtuJT27EgiU/Fiz/phasajOKAUhTEo7O/nxdV8J28pP8WLDkx4Ll3+7cfKrMjGIAEt255UxbyRb1bIqciwVLfnrBsh17Kny3b4hON2MYgEQlm7tqbCc/yY8FS34sWP7szs1d3MUdkK5ka7TkTn3Ck3OxYMlPL1i2Y08FbvMZbjIKuOAO9WzKOgRIdCxY8mPB8ml1XdwDC3DB7epkv2NLl0duxYIlP71g2Y49FbbbtnQtM+MXgGSf23yq7I7N6sQnp2LBkl9qwbIceypst24+WWrGLwDp7tjU1W4bBCQ3Fiz5sWD5r9s3n06YsQvABbdtPlVze+rkJ1diwZKfXrBsx54KWpsZuwBcoO/Jcpt6ZmUZBiQ0Fiz5sWD5r9s2neYzCAHX3LbpTMNtegCQE7FgyU8vWLZjT4WL668AB+kT/7ZNagiQE7FgyS+1YFmOPRWmz206HTfjFoBrbt3YdexzqUFA0mPBkp9esGzHngrTrZtON5tRC8A1t248Wa2eZalhQNI7fmbIusz4MRaszEovWPbjT/lPz1czagG4Rl/s/tlNp+LqmZZ+tkWCY8GS30K1YNmOPRWmW8KdJWbUAnDRZzedrrcNB5IVC5b8WLD802c3nm43IxaAq0rC0dm3bjoVsw0JkhMLlvxYsHzUS6dqzIgF4DI9DNQzLv2si4TGgiU/vWDZjj3lt+KNpxI3h6PFZrwCcFnqWqyNp2K2YUEyYsGSHwuWT3qpq8WMVgAoKrrlpVM1xWo4kMxYsOSnFyzbsaf8dsvGEyEzVgEg/SqWGg7tY4cFyYgFS34sWH7oVEzPUjNWASBNP/P6zMZTHsmLBUt+esGyHXvKX7dsPF1vxikAXO4zL51qV3kkKxYs+aUWLMuxp/z16TCfPQhgHLeET1TYBgcFOxYs+bFgFbZPv3SKi9sBXJ0aFI23qIFBcmLBkp9esGzHnvITr14B+EizwtHZasmK2YYIBTMWLPmxYBUuXr0CMGH6rUI1NPTgIAGxYMlPL1i2Y095iFevAEzGp1481fzpF9XwoMB3vIsFS3qpBcty7Cnn8eoVgMm5OdxRrJas2M1qiFCwY8GSn16wbMeechuvXgHIyM3hk8tufvGkGiQU5Fiw5JdesOzHn3LTp148yatXADL3qRdPNKtBoocJBTQWLPnpBct27Ck33fTiiYR+ld+MSQCYvPRbhSe7xw4YCk4sWPJjwcpvN4VP1JgRCQCZuykcKdPP2GyDhvwfC5b8WLDy2Yl2MxoBYOpuDHdW3xTWz9woaLFgyW/h6fetx56y341c2A4g2z654WS9beCQv2PBkh8LVn7SM9CMQwDInts3RKerAdP2ST1oKDCxYMlPL1i2Y09ZbMPJmJ6BZhwCQHbpi97VoOm2DiDyZSxY8mPByn03hjvLzRgEgNyYFY6Uzd7QmZgdPuGR/2PBkp9esGzHnrKTWq7CZvwBQG7dsC6ybPYGNXzI97FgyS+1YFmOPU29Gzd0tpqxBwD5MWtdZ/WNqQFEfo4FS356wbIde5paN6w/0T0rHJ1tRh4A5A9Llv9jwZIfC1YOWt+Z0JdDmFEHAPl3w/rOldYBRb6IBUt+LFjZb9Z67tYOwAdmre8M36CGEvkvFiz56QXLduwpsz6x4USjGW0AUHipJWu9GlDkq1iw5JdasMzxpinXbEYaAPjHTLVkzVJDivwTC5b89IJlO/Y02Tpbi7iZKAC/mrk+UqMGlR5W5INYsOSXXrDsx58mXDvLFQDfm7m2o2Lmus74J9TgosLGgiU/vWDZjj1NrJlquZoV/iO3YwAQDDPDJ+bMXBfptg00yl8sWPJjwco8PaOuD3eWmLEFAMGgnxXOXB9pU88Q9bNEKkAsWPLTC5bt2NPVm7G+s31GuKPYjCsACJgN0ekfX3eiYeY6NdQo77FgyS+1YFmOPY3fjHWdrbwtCECEGWsiNR9Xg43yGwuW/PSCZTv2ZG/G+kgjF7QDEGX6mkjZjLWdMdvQo9zEgiU/FqyJN2NdZ50ZRwAgi35ZXj+DVINODzvKcSxY8tMLlu3Y0+Vdv+b4SjOGAECuGeuOh2asjcRnrIuo4Ue56njXoHWZ8WMsWJm18PR71mNP6a5fG4npV8/N6AEA+fRv8HxsTaR1+tqIR7mJBUt+esGyHXuKeHq+FHExOwBX6ZfuVQnbgKSpxYIlPxasK9PzRC1XNWbEAIC7Prb6z3OmqWeb1+vhSFmLBUt+esGyHXtXm7b2eLeaJbwlCAD/3/VrOyqmrY1EbIOTJh8LlvxYsD7sY2sjDbwlCABXoZ6B1qhiamDqoUkZxoIlP71g2Y69S01be/wYr1oBwESpZ6LT1nTWTVudup5CX7BKk4wFS36pBcty7F1o2upIfBq3XwCAzFxf21mihmizbcDS1WPBkp+rC5Zarng7EACyQV8If+3qjoZpqzsSauHy6KNjwZKfXrBsx15q163paJm2pqPUjAUAQNaoZ63Xre6oVcM2Nnb40uWxYMnPlQWLxQoA8uia1W8su2Z1x7HrUgOYxsaCJT+9YNmOvZSuXX28kcUKAApE/wbRtWuON1+7uiNhG9KuxoIlP4kLllqq4nqxKqrtLDGnOACgoDZEp+tXta5dpZatVcfj161WA9vhWLDkl1qwLMc+iF27qqNFn7/6PDZnNADAj9Sz4FCReiasly31n/UzY6diwZKfXrBsxz4wrTrerlpZ9E8dxea0BQAEiRrmo8tW+xVDXmgsWPIL3IK1qiOhzsPWa1e9UVO0+s9zzOkJABBBv5VY+0a5GvTh9LCX+QoXC5b8ArJgtaXOtX/hbusA4B79bLq2o7podUeDSj0gdHRfs7rDC3IsWPLTC5bt2BeiotVvxMy5U6/Op9oi/SSG66kAAFb62hD9QLGqo0L9M5xqlXoQsdd9zSr1YOOTfvX73tSSFYQ29bxnXSDo6qUWLMuxz1bq5z1x5c+5/g0/cy7oJyUsUgAA+NOSWLLNtkDQR9Sb7DbfQgAAgMuxYGUYCxYAABgPC1aGsWABAIDxsGBlGAsWAAAYDwtWhrFgAQCA8bBgZRgLFgAAGA8LVoaxYAEAgPGwYGUYCxYAABgPC1aGsWABAIDxsGBlGAsWAAAYDwtWhrFgAQCA8bBgZRgLFgAAGA8LVoaxYAEAgPGwYGUYCxYAABgPC1aGsWABAIDxsGBlGAsWAAAYDwtWpiUj5lsIAABwORasTEs2m28hAADA5ViwMimZCPV4peZbCAAAcDkWrMmWjFfFkhXm2wcAAHAlFqyJlkyEer1wKOrNNt86AAAAOxasCdSbbA31eSXmWwYAAHB1LFhXKxnh7UAAADBpLFi2kvElvV7tC1Fvuvk2AQAATBwL1tiSzc8NeMXm2wMAADB5LFijJdurzifLzLcFAAAgcyxYyXioN1ljvh0AAABT5/KCVdWXbOC2CwAAIOvcXLCSx7gTOwAAyBmnFqzeZKyqJ7nMfOkAAAC54cqCVRVL1vF2IAAAyAvxC1ZvsnVprzfHfLkAAAC5J3bB6k12h3q9kPkyAQAA8kfegpX+UGbuwg4AAApG1oKVbOEu7AAAoOBkLFh8KDMAAPCRYC9Y6Q9lNl8KAACAPwR3wUo28nYgAADwpeAtWMljfCgzAADwteAsWMn4kp7kSvPXBgAA8K9gLFjJeu7CDgAAAsPfC1ayjQ9lBgAAgePLBYsPZQYAAEHmrwUrmdAfysxd2AEAQKD5ZsHiQ5kBAIAUBV+wepPd3IUdAACIUrgFK5nQd2Hn7UAAACBOYRasZDN3YQcAAGLld8FKRkJ9Xrn5VwMAAMiUnwUrGQ/1JmvMvxIAAEC2XC9YVX3JBt4OBAAATsndgsWHMgMAAEdlfcHqTcZCPV61+eMBAADck90Fiw9lBgAAyNKClWzjLuwAAADGlBYs/XZgrxcyfxQAAAA0tWA1Wpenq5ZMqMUqzF3YAQAALPT9qexL1Dj1JltDfV6J+Z8DAABgLH2PqiWxZNy6TF1WMsKHMgMAAEyQvq2CfanSqeWLD2UGAACYPH1TUP3235jlig9lBuBTRUX/C1mE43K8KoyVAAAAAElFTkSuQmCC" parent="1" vertex="1">
                    <mxGeometry x="231" y="127" width="120" height="63" as="geometry"/>
                </mxCell>
                <mxCell id="6" value="Saves Short URL" style="edgeStyle=none;html=1;exitX=1;exitY=0.25;exitDx=0;exitDy=0;entryX=0;entryY=0.25;entryDx=0;entryDy=0;" parent="1" source="30" target="26" edge="1">
                    <mxGeometry x="-0.0027" relative="1" as="geometry">
                        <mxPoint x="583" y="137" as="sourcePoint"/>
                        <mxPoint x="716" y="153.9272727272728" as="targetPoint"/>
                        <mxPoint as="offset"/>
                    </mxGeometry>
                </mxCell>
                <mxCell id="11" value="Requests Short URL" style="edgeStyle=none;html=1;exitX=0.87;exitY=0.02;exitDx=0;exitDy=0;exitPerimeter=0;entryX=0;entryY=0.25;entryDx=0;entryDy=0;" parent="1" source="16" target="3" edge="1">
                    <mxGeometry x="0.004" relative="1" as="geometry">
                        <mxPoint x="164" y="133" as="sourcePoint"/>
                        <mxPoint as="offset"/>
                    </mxGeometry>
                </mxCell>
                <mxCell id="16" value="Clients" style="points=[[0.13,0.02,0],[0.5,0,0],[0.87,0.02,0],[0.885,0.4,0],[0.985,0.985,0],[0.5,1,0],[0.015,0.985,0],[0.115,0.4,0]];verticalLabelPosition=bottom;sketch=0;html=1;verticalAlign=top;aspect=fixed;align=center;pointerEvents=1;shape=mxgraph.cisco19.laptop;fillColor=#005073;strokeColor=none;" parent="1" vertex="1">
                    <mxGeometry x="27" y="132" width="70" height="49" as="geometry"/>
                </mxCell>
                <mxCell id="17" value="Receives Short URL" style="edgeStyle=none;html=1;exitX=0;exitY=0.75;exitDx=0;exitDy=0;entryX=0.985;entryY=0.985;entryDx=0;entryDy=0;entryPerimeter=0;" parent="1" source="3" target="16" edge="1">
                    <mxGeometry x="0.006" relative="1" as="geometry">
                        <mxPoint x="83.99999999999986" y="221" as="sourcePoint"/>
                        <mxPoint x="275.1" y="235.85572281959367" as="targetPoint"/>
                        <mxPoint as="offset"/>
                    </mxGeometry>
                </mxCell>
                <mxCell id="26" value="URLs Database" style="shape=image;verticalLabelPosition=bottom;verticalAlign=top;imageAspect=0;aspect=fixed;image=data:image/png,iVBORw0KGgoAAAANSUhEUgAAAjAAAAFeCAYAAACb5yXYAAAAAXNSR0IArs4c6QAAAARnQU1BAACxjwv8YQUAAAAJcEhZcwAD2EAAA9hAAZLI0moAAKZ5SURBVHhe7b0HgCRHdf9fPbP57vZy2lNOCCUEiCCETDLBpNvDxoafbYyNwdgYG9uAToANxgYk2SaYnAwGG/4Yw51ExgiQQIgoFE45h9u9nO82T//f972q6uqemY0zsz2z79P7ql7qnrhdbzpGcRwbJd9EUWQ1RVEUpRHo2Jh/CrZXFEVRFEVpGrSAURRFURSl6dACRlEURVGUpkMLGEVRFEVRmg4tYBRFURRFaTq0gFEURVEUpenQAkZRFEVRlKZDCxhFURRFUZoOLWAURVEURWk69Eq8TUArX4m3fzBea2JzIal9JPeT/GxrX7QPMUVRlPlCx8b8owVME9CKBcyLB2NTiM0GUj9F8mSSHpJDJFeTvNaUzIGtx+ktFBRFmR90bMw/ugtJmReoeOmm7s0kzyNZRtJBsork90heG0emSL2iKIqiVEQLGGW+WE1ykahlPCOKzFKrK4qiKEoZWsAo80UXyWJRy4C/U1RFURRFKUcLGGW+wC6idlHLgF93ISmKoihV0QJGmS+whQXHvVQCsWrFjaIoiqJoAaPMG4tIcCBvJbALCbuYFEVRFKUiWsAo8wXOPEIRU4nJYoqiKIqiBYwyb6whqXagLs5AQhGjKIqiKBXRAkZpOC95hC8QdTZJtSvV4QDeM0VVFEVRlHK0gFEaTqkwrQLlHNsriqIoShlawCjzQS/Jo0WtyuM2bY/1TCRFURSlIlrAKPMBtq4sF7UqG+LInGx1RVEURUmhBYzSUH5nB5UlxjyepNpVeB04iPf8TTv0hmqKoihKOVrAKA1lvMSnRz+dZKrdQ7gOzDPjkl4PRlEURSlHCxil0awlebKok4Lv5lNJptrVpCiKoixAtIBRGs1zSHANmOlwOskTRFUURVGUBC1glIbRPxBja8omkmrXf8mCeyW9lOardssBRVEUZYGiBYzSSC4geYyo0+YikqlOuVYURVEWGFrAKA1h42CM79prSFazY/qcSPKK/kE9G0lRFEVJ0AJGqTsbB2ITxeZcUp9LMt3dRw58R19uYrNBTEVRFEXRAkZpAFSx4JovrydZwo6Zg4N+X7dxMMYxMYqiKIqiBYzSEJ5BgoN358IfRDEfQ6MoiqIoWsAo9aV/IMaF695AsoIds+c4kr98yQ7dCqMoiqJoAaPUESpecLXdvyXBBenmCo6d2VgqmT+m5eJu1oqiKMoCRgsYpS5sHOR7Hj2J5M9IarXVpIcEW3PO2qj3SFIURVnQaAGj1IUoNidQ906SWp89dCbJ26PStK/mqyiKorQgWsAoNad/MMaWkn8mqcWuo0q8kOQt/QNxm5iKoijKQkMLGKWmUPHSYWK+YN3LSKa64/Rs6SR5Lcnv0ePp8TCKoigLEC1glJqxCVtEYvOXpGLrS723jqCI+QA93iv6t2sRoyiKstDQAkapCf0DcWdszB+QegkJTp1uBCtJ3m4i82J7xpOiKIqyQNACRpkzVDzgLKM/InkvSaMPrsW9kj5C8hLdEqMoirJwiOJYT0fNO1E009sHNYb+R+i7U+DbBLyZ5HUkc71Y3VzYSfIv9E59mJ7T8JZ1+XzPFEVpDnRszD+6BUaZPQW+szROld5MMp/FC1hL8s+0ynlzXDLLxaUoiqK0KroFpgnI2xYYe/ryU0guJ8HF6vL0BEskPyB5C8mvtvZFE3AqiqLMBB0b848WME1AngoYKl6w1eXlJLgiLo4/yeNWPBQx95BcQfIVKmIOwKkoijJddGzMP1rANAF5KGD6t8dtJuKtLdhlhAvUNcNNFYdJvkfyTnoLb9iyXrfGKIoyPXRszD9awDQB81XA4H5DUcl0k3ouCS4c9yKSVSTNBL7gu0i+SvIpsm5tL5mRLx+fr91yiqLkCx0b848WME3AfBQwLxqIC0VjHksqTo/eRIJ7GjXzqI8v+kMk/0vy+VLB3HLVOirPFEVRKqBjY/7RAqYJaFQBs2kg7qBvw6mkXkzST/IskmbYVTRThkiwa2kryY/jyNx/5fpoDAFFyTObHokNfV+76acELhaJSxj0ZmSZ7V1sCQm2okK6SHAAPq6X5I5dw27VcZJREvxfHCM5SrKf5AgJjh/ba3v40B+k53Bo9IgZ+dbprbslU8fG/KMFTBNQjwJm42AcRTGv0LAixG6h3yB5GsnjSY4nwQ0ZWxl88bGyxlaZX5JcQ/Ijkn0kR0qRGblqPb1DitJA+gfjAn0zcZsM/G+iX0pyHAnu7o6D5qH3kcCPAgX/v65AQXESFihzOcAe330UN67AGSFBYYOiBoUMippHSG4luYsEB80fopmGaEgZumpD8//v6NiYf7SAaQJmU8BsHKACBTdTjE1HVDDtpdgsIhvXR8Hl97EyhJxBcjbJ6ST4xda6P6emBv8IWDljRXwzyd0kD5M8Qu/KHlMyB+kNPUZJ+KWKg4NHt/ZpgaPMjhc/HJtCkQsN/FDADwYUJidbHYXKSda3jsQVJnkFBQ6KG/zv4P/mRvrH2EYrkxtI300V0PjX+ppv1aJjY/7RAqYJmEkBs4kKF/pEsQL8axLsAsImZSwAK0usBHHPIPy6w64hvZBhdXB8DIoV/PLE7iWspPFrFP8w+AX6DZIPkWynQoY6RSln4yP0Q6LAW0ewtQSXIMDWE/x4eAzJaSTYZYsY/ich+P9s9i8U/k+wdRO7m7aRXEuCrZv30z/Pbnp1Y1euz/9L1LEx/2gB0wTMpIDpH4hRsHyaZCMJihalPqCo+SzJ31IBgy03C4/Nt1EBXHLHVqAgRu+2FkDc98/thnDCW7Domz1MWUPmn89uqYOp+wfjDipzcdA7tm6eRYKz+NwWFRQx2Oqy0Kre3SR3kqCQuZJGnZuu7KPPP8fo2Jh/tIBpAmZYwODg2y+T5HmTc6uAX5m/SQXM9WK2CJtvaadvHXY34sacOD4K/Xor2KUBG7duQA4KGBQv2HKAvtrxFyhSIChmsGULBSB6vIcHSXaQ4HR39AO2x/2tcKwFSbTXXHY28nPDS3bHUWmMD5JFcYItKY8ieQLJeSQoYPDeKOXgs8fups+TfI+KvZu3boiwpTNX6NiYf7SAaQJmWMD8FXUfEEtpAJuogMHZTM3D5tuoKeFLhYNEMcjiQFAMwo8mwanz2AWJLQW4vxWf0ULJbovK5LsdK31VZ7CKoVRX5GCQw5Ytd9Aoipv7SG4iuZ3kARIUP5ARmjE2l59Dan2g/yv3fuFYMRRw2AWEA9/xnuG4FbxfeC/1h8P0wWeMYhVbZT5DcgMNRwevzMkBwDo25h8tYJqAGRYwuNjcV0jwi1ipLxhcn0kFzC/EzDmXbsPguoqGeuzWwO4NFCtn0LcLgzC2piRfNNJSxjRwWW6NEs41s7WMZFdbNZEbERxfcQcJdkugqLmFHhCV2R7znnMwMM4Z+l8q0AMtp9eBg92xZQVFywUkZ5K04uUF5hPsTrqO5MMkV9P/1CE45xMdG/OPFjBNwAwLGPxq/gQJjoHRX4P1A5u8cQzMm2hle5g9eeKSbREN6NgigF092L3xRJILSbCZAoOy2/XjK43kW1b+fZv+N3BuVF8bYROLJZNEJgoWbInBlhqc1ouCEoMhttjsMKV4yFxx7pQrOvrfwfuB/x+cDYTjVp5OgssKYDcatrxo0VJ/8L/0M5IP05fuB6MFc/Cbaxv17UujY2P+0QKmCZhRAbM9xsCVPQsJhQwOHMRKWA/snTk48BQrVvxKxGC5hwRnIX2EPpodW/J2RsXmbRiAcU2fp9Mzw1YD2LhuCFci8mzTz3myV8CxyRJqzGSrpHRILO+ziu1wXM2DJDeS/JDkWnPZOfdSn+JFg3FUiM0aenm4vxfes/NJcCwLChn9ATB/YAvbFpL30g8EnMnUcHRszD9awDQBMylgHC/aEZtiiVbAuA4MlTT0KWNljF/d2H/vTt9014A5hQQHZy5k8I+A677cT4IDDG+jQftu8kLHgaTY4oJCBgePjLVNmPHc3E/pkluW0JcEWwyeQfJckgvomeGz9oWHdOnnW+nZT+erNo2UGTHlGogSKuWU+8q30gQ5KD5xwcJvFwrRNU9/+ammd2XnU8h+MQm2SuFYn1q/NGXuYFfSe0g+S4UMDuxuGDo25h8tYJqA2RQwk/Hih2JTwL2l5TgZXNgOuxlwPMRzSLCbAUUOTolt5RU6vvjY7TBIgutUfJ8Ex1Lsole9Py6Z8bwcTJji726kT60NB9LiwFucFYT7VD2XPigcl7GannubfGjJR1fpQ6z0laqU57xlscrJsyN4lxO1/K2v9GFUWn2FLl/SJB0OEN69ZEXnyPGPWtq94YylSzp72trb2nHrr5q+KqV2oPjE/+jbSX5FhUxNjnGaCh0b848WME1ArQuYavQPxhGt4XH652+SPJ8Ev+bxy7SVwBcetwv4JoSM79O7u5tWivn/R9h8MxUuxT56Cc+m54xjnLDbAwVo6juS/bZMXayIxW2FXODc7k2qkjZjwjc9+xgprFO6dEY2P1ylZTO9bZW2zuLwyr6e0b7TegtrT1zcTsUMjnOp1ctTagvOWPon+j5/bsv6CD8+6oqOjflHC5gmoFEFjMNezRe/8LFp/fdJcGYTThWd/BTafIPdPzioE3ejhuDslaHcFy5vvJ1G2QmcIYQzh/4ffRNQXOKz6KJh1n4zwlaYTtHi7UxuhVlTTBWfKdP5AFI51pAuPXc2L7SzmeGqr1CMSt1L2sfXnrRk9LgzlhaXrOhsb+so6DEw+QPHon2J5K30Pdy9pY7/vzo25h8tYJqARhcwIf0DMa59gQMbX0vyUhIUNs0Gzk75HMl/0Lf9tiv7IhQz+WfzNuzGeyF9+v+PeuzaW4fqISg9UsVE9msSZnk9yMmkM5V8leepmDkLkvWP1yqskiqtpcp85BBfEglzwlVd6IflYug6e9pGV/Ytmjjx7GWl1ccv6i4UomYu3FsR7Ab8H5JL6QcIDtSuCzo25h8tYJqA+SxgHJu2x4U44iuMXkaCC3jJQaL5Br/Wvkmj0tvoLby3nr/WasYltxTpA8e9cn6XPvU/pP7RVCvwAOrKkPDbMNeiJWs7h3Rl0TKmzqjM9D6I8l0+jkrzp3xkiJ14w3ilYqbseJnIxL0ruoZRyGw4fWlHV08bjhyb7UtWag8Oyv5TkpvrsSVVx8b8owVME5CHAsbRPxDjiqPYIvB3JDheJo+/TvELDafMvptkK63ccEptfnnzTdiHgQOqcfr7y+nT/m3qz6ah0h+Qm/0GuK9E6OeswFE2j+0Zn5rNquRJ4NhkCbMhXTdUpDxmy40gkM1J2WSIHbZC1WLGGlEhKvWu6hrfcMbSiePO6G2nQqZIvlq/C8rMwVWbUcS8ij7DW2t90L2OjflHC5gmIE8FDKAiBkULrkyKAgHXzsjTtWVwv5yvk/wDyW25P8blTbfSuxfjuiMvo0/5j6g/iT5uUpPP3GnlRYstbBJHqKb1bCKRtgTOwztWIVgpvzoue/pv/2SZlVZT5a5kVxAI46lcMoJtO16rPG9QKEUm7lnaMXbSWctLGx61tNCzpF0vbJcPfkLyZ/S/XtPrxejYmH+0gGkC8lbAgI0DMZ4V7q77NyR/ToLjNeYbXDPicpJPUtmye8uG/L1vHrmTM67H81J6ltgMvoHeUNxEkcPumYcffaKmC5cgJaXDEDvxpuKWSl+vSnlZb+Wc6VO+5pmOhyBn1p+2xZqymCHFZgat4OZNfElxFBWjuHtx+8Spj1kxvu6U3rae3nY9BXt+wRbXn5L8Ln0KA1trdGFJHRvzjxYwTUAeCxhH/0CMY2GwteMvSXCl3/kCp0a/M47MR65c35jrRMyaS7b10EeK41v+jORc0tvc+Oc+6UqFi9+RRF0QTnTvT6JhHsh+lbLx8iUQ5UmVXLOi4ton4xQz7SybjxyhL5vNtnVWzCPFbZVJxa2R+IJCphDFS1d3jZ16/sqJvtN7O/Vg33kFn8qnSC7Z2hfhoP05o2Nj/tECpgnIcwEDqIjBL1AcF/NvJDhGppHgC/wQCYqB79DKC7788dab6HdiEWdwvYSe4Ruof5x8rPJ83bMuL1wqb20J0tjwxQ0RxiYvWMTyviCYma0q082rxFRrnrJ44BA1cWRzw9VaOpYUIMCp3kWK6GFLvVWcDS30rVjfM3La41aadSctaS8Uc1XIuLt7o8dTDQWFPo4PQ/GP66rggnHYBYuPFa8BZyAusYJT+d39oPJaqOF1vo9+xLylFj9idGzMP1rANAF5L2AAFTFY2WGrAo6LaWQRg9Mocd+nb1Dxkr/Tozfj3oJ8k8Dz6VPEVqqN9HH2uqHffbLuI04+6aRwSXyBzv4kksoJjNCfmsMq6XhCNX/l+apmT4Lb3hFQYVVUbe3k/VaRLslOzUdGaDvdP4NqcVbESvsCG5o12jqLpb7TekdPecyKQu+KzvY6HeiLQRrfcwzQKDZQdOCu6Nh9CtlNgltfYCsE7id01MoQCfLdLTGwHBQtmBeCGJYJP543BNfBwf81trKieOkjwX21cFkF3IYEu5BR2CAnL0UNXjt2yV5F6wMUbbNGx8b8owVME9AMBQywW2KwJQRFjNw8sL7gypxvoG/w/16Z14N1N9+ynsoGXEPn1TQkQGe3+0RnVLh4X9gKlYuWIM86gzQmayd5UPCWlmVU8MyN8g8ueVxeP7mnEpCdx9ukJDHRwtzs6s5lcG9jLsWnkuKKHR+zirehWaNrSfs4jo854azlbR1dxbleDA+XAsA9gB4hQbG+nQT37NpJgttg7Ka35zA99NFCmxn+6pq5DdrTZdNgvIjeA1xQ8ckkTyLBnbtxTFceLv6HXw0bqYApu3nnTNCxMf9oAdMENEsBA/oH425akf8FqbgBG04Nrhf49fhqki/Tiip/x7xcsq2LPrYXkvY3NADj5oodblBGW15wUMlgfUHI6+F3wPt8k/iEpAgKOk/WhkN8ZZEKnsmZLH8ma5rKuelCw5HN9bZVXPEBwpjTk6jNDWLA57EiVtqXeF0KDvRdvq579PTHrYrXnri4I5r6+BhsAdlFgjud302Cu2jfRoKbiWJrCraiYGvLOJXqE8VRE//vyTP9dGqPPZgfW2BwS4vHk+DeXM8kwdaa+Spm8DF8guTvaN2A921W6NiYf7SAaQKaqYAB/QMxzkj6DAmu3FuPU6yxsv9QoWje9NW1jfnFOROizdtwc8y/JXktfXS8u8h9guFHKWp54eJTSHFzeh9RvgybZ40wF6RsTktnZPMB+yoFLJOEZsSkax8KVoun/eWFTRj3Oimih62QLkQALTPj8z0rYVnkfGGOaG2dRZytNHLK+SvbO7r4Wj8OJGBwRZHyI5Jfk9xNzofpvd0dF8zEletyfgmADBsHYxpQ+EcLLnj5ApLXkKCQqdXXZSZgV9qfUgFzlZgzR8fG/KMFTBPQbAUMoCIGK65PkzyPHbUDX9jPx5H5qyvX5+sCdVS44FgBbHV5J62yz8wWH+lCxUap8XHbi08s7yOyhU6SRZAS5oJ0LIlm8wD7KgQq5QqVI9Xyq69lKkeq5VdaXYUutwXFkY5ZfErYUu8TAh80ayQ+27OSFDJu/iSPNPkzuPv1o5+85siaExdf29Ze+AW5ULRsowEWx6m0HBt3UDFT4uNjXknyChIUNY0+TgZF4W/Qe4xjfGaMjo35RwuYJqAZC5iN22M87YtJ/SIJiplacTvJ75Zis+2qvFzn5R13m2h4BMcD4Ho4r6bXvTL81LinJrHFcDZgnX3idTHnTzrbpnyC10mxWUGbJvuVSpuJlfJXWhBRxV2VqmucIJDOmcQiIx0NbVtcWEeYV+4PW+pTMUDLIiOxrc4+8bpYet7kORTbC8cKxeg/JsZL/zoxWnzQXHEmZ7Qy9EMGu5Fw4C92K/8uyXqSmX5lZgsOSP4Tkv+iImbGW2p1bMw/WsA0Ac1YwABaeWFzMi50904S7CefKzigEUXCF2ezQqoLm28tRCZ+HGkfpNXyE6gA4V1m+MSyRYYrXERPeskTj/dbxdmgauEDvD9sE8KvUDrmSiZL1bzKTCenEtNZ66RyrJH4Kmmkp2bKxGBZR9ovjfjClnqrOBta1sc9NZMVMu6x6Q+DKi5//3pTin9lrjg3d7tA68Gm7XExjviA37eS4I7q9Tw+LuQ6kpfR+gIHQc8IHRvzjxYwTUDTFjCD9N0qmaU0ym0h8xninTX4ov43vROv2dIX4ZTQ+eWS2+hllXqpwebxN1J/IkoB90mlCxDrp8bHXW8TU35ruEi5L+lB+P1I+61iCbNSIWtk0lNMFktRLXEGq5lqqd4fJIiaOMJ5w1Vb6IeVLUIA69SIL2i9L+jtAlJ+apzX+62S2D6GaxfhukmfNaXokLkCZyW3NvSDBt8O7FZ6FcnrSbDVst7geLm/oAIGu7NnhI6N+UcLmCagWQsYB624cFzI50mWsWN24NTRl9KK6Gdizi/R5ltX0Sru7TRg/zF9OoswcrtPKSxe2Ct/jO9ZCeaxjbN9LPAlMdIrFC3cB0lhhtetEqQxWRskD1EpKlSPTM7Ua52kyAjJulI2GWInXq/5WBiFngSycXl8sdK+xOtSfNw2rkxBm57HxuQPZ9LhYPd/NJedg4NOFwQbB+J2+t5cRCrOFDqdnfXlR/RFfdbWGV7cTsfG/KMFTBPQAgVMD3X/SoLdP7PlbfQ2XLZlfYRN8PPHG28yUVsRx/a8h1aKF7nSAK37mNynVWnrirgyfqs4b5DCnVVZET0oSCxuGSBRy5cVkrXhKF+yUNlbe6qtjVxBECZkc71NShITLcwNV3lOrVrIeHfSls9Pc1sfx0W1Pv/MMznUyh+4nmSz6Rq+1rzjAvEsAGi9gLuvX0byOyT1POUaF/h7Gb3/37pyBsfN6diYf/J6SWilhaBVBn5pfpJkVmcDELho12fmu3iJNm/rpOIFp4d+hgqGCzHYY3VYoAYFBHQRmsiR2CTUSEET+NlndTcFPvxzokcjy3OT4HL58WGTFGwG59u4i6WEGhGXG9l5g5xQqKm70OO415yV9OtyUjkX/uQzCackDgHeh8kuMPGRwGafeNI+EfZXm9dPYgOJ08RxFlwI7j/McNcLDX3HkLMQGJML872RBLt36rlbGFcRfi6933r38BZDCxil7mzpi0wcmZtI/RrJTH/WoGj5zLhcdXfeiDbfimvb4JYFn6XB6lTyYIxMDUrSkyZ/1iZhWzxse58TGcxgoAPcw6aATEGM/WKLz+ZYp4uVFQNYlhPrDeMMKTx/IGGBlEh2kiIjLWmfy3OaTMEyqakqYZ4XmiiYSIUc+JxYr0yhPxSarDPlh80+N0kgPT9NKZsENhSOJjbrmCSIt5i+U7w76a/N5lsWRBHzDVovbO2LcGVhFDEfI8GF+uoBvoq4nAMutqe0ELoLqQmwK7mmp38gfg51OBZmDTumBy4H/ru0ortBzAbzjltNNBzjwnRvo/Hmj2nIwQ0Z/WDkdLRuYBLL9jYpsW1v27Rte2p8nHshm+vj1KTybJ/4k2iYB9wyHWmz+nxMRecMqbD6SVyVNAs5sr4wm3XrCPO8TorbuZP2edX24nQ2gD7Z7iHpSZM/a0sDv/dZBV2Qj4vbfZbkn008vMNcvjB2KdG6oZe6vyLBne3rcYYSDuZ9Ca1HviHm1OjYmH90C4zSOCLzc2pvEWPa4PgAXK10XqDiBdetuIye+2tRvGDMZrGDt3QVihfY5ITOwrbV3eTtQHgeNwnpeSE0Ia/Mb4VjnGWnMJZIestKZuJlBHmVJFyuFdnqUi6VclmoqS7+2QQT+SvNFy7TTZgfkoqJoMm+R2gqLouXIzZgP9tusjb7nNBkbcA925LPplXQsVf+UCDjfmL0nevCd29BQIUFjlPBcXL/TVKPW4Ng99EzfnsnnwmltAi6BaYJwAq0VaBfWjiFEsfDTOdF4c65L6aV23fFbCCX3EJve4Sb032OnumTMBy5J5wMTHYw8rb0kjjJQIU+8DGkIOZtIpvD0TKfhUPeCjSrB45sVjYOMqanmn+uTLYW8rEgSdTEEeYEaRk9CTq/j/tQsoUk8QW9XV+m/NS4udBOtjXG+4LlpPMpmxT544L/FaTebS4712a1NrR+wJmKnyL5bXbUlh+TbKL1Ce43NSU6NuYf/DhSlEZyDcl0Txm9i2SmW2zmTPSWbShesO3+41RETFq8ONvr1MgU+FinyRroAPvZdseICOKzcRaZN+2zAh9iPGX9gbA/mDAPOf3WlWDeiltMqJFcN29tpcB95jGzQk1aaJ7UVCEntQyarNP53GtlH/vdlPisKj05ssuVPLG4hW1j3pv1ZfMhpLNPbJhPJPk4WReYt9wq4RaHPg/cWgHHw2CLTK3BdWdOEFVpBbSAURrNIAl+CU0FrlD6Q5K9bDWIaPMtET0yBo5P0yDyDAwlGDnsoCIDTjLIMOzjmIw6gGPss34bsG4Rm2RDsgwIdBbMJ/PCBuyHzX6XZf1Wkl1DweSW4wR5wTxOuJDi3ERQXIQH4YLy+aYn2fkgAD0f7Jt5bPf49Jeaxy8Lfi+UR1P4XFO7v/y8FEOudYpPerbZ5yZrs0+Eo8G8XthOzwPYxsRxgX1sSz5I4n4ZcD2d1P8wpfiJ5pLbXGrL8tU+fom41tPVJLXeBIKDeBtx3RmlQeD/VlEaBq2RcUo1bmQ31X5unFb5Y1qF4eC7hhBtvpX+HyIMGJ+j53mOG1zcwCIiRmKTIIE00a34uBiJTQKb5xGbe/jQs8hk/xgfo0SOhT6IVexiCcni5ULYkxaGFF6mFbbF7cXh7ErHxKRmmESy80F88WCBHgrgV03J7jmKL4xb3SrSJS1wj8e6dByt9LrZZp9birXZJ3DE2k7EFotb2OwTD78GSWNBw37nY1sC3IuNy/R+3kSlp5vNt9Tj7u75IuLLLfwvCdYVtQTXo3q0qEoroAWM0lC2rI/wq+pXJFNdE+YgJf56a0Nv2Bg/hVae76dB5gwMNfAkAwp6MWB7n6SJzzqdhwcrMjjmhJNkcOKBmxSXw35rpOZj28asLzUvhP124tzEDyRufRy3wlMQT+VVkVTubKdgGdRUlTDPSvlWogp58DmhSbbKpGOucBJJL8sXVbDh5AzB5UDcc4HhfGyynZ6He9bFYJ1t9IGPbfGxnxpqseXgA2Q8BXmtzFZZR+BHzi521A58rI8SVWkF8IEqSqO5mWSqXUMP0ZfzPqvXleiSbYVo87aLaKD4HxorzsPgwX47kLAuAwnb7IMeDkSiSoza9LzS8ABpbc6Hjzs7eTsQ9kFL+6A4G62fP/CnhBp5fFjpGGCdGohzOjVxJVYyhd6ZSPncWQ9Dinte3kdAdzbPh9cGYTuMkVgH5/Fk4/CxPxSaoHjbCjVubm9Dgc5CE+cI3LMt+WxaBR1/d+SPEVMstG5ZImLQ37lkfsls3vZUkpZed5eKBjdfxEHMteZRmwZjHfdaBP0glcYT8dYXHKA7GTdt6av/lXejS7dhfMCWlw+Rsh4DBvtlwLC6GLDZxzpr4hOVfTxx3PkkLhEhyU/8bh4naPhxSUGLf1TOgVivn1L+QOCjhoWnbCwjHKsyUYLLq7QLabZStqxgSo5lwVQtPyPkTF5zNiaKLM9N1sd+JzRZR+Ijgc0+mc/5gHQyn4+Jy/rEX6APso1kcXtklnUVzapFBbNmUdGsXSwCfUV30fR2FkwX5RQpV5aFBfEfTq3+IMlF5tLWPbD3qrW8FeanJLW+W/faODbdVleaHD2NugnglWmL0T8QX07dm8WqyJ9v7YtwNkLdKFxyWxRHpfNpVPg8DRBnu3dZBimni4aWNY7JYMQm26xJb+1ED3JtI3Y636rWFo/3W8V5nR+Kzwn74DmHpJfjSC8v6Mqo5i8jmzjNVUy1NO+3SpInWjhfuDoL85w/lWsb8SWnT1daBtaTXnc9K9ZPDXofsw7YKEJW9RTNGSvbzGkkx/cWzXFLpVBZ1lUw3W3GtBcjU6Lk0YnYHBmNzf6hCbPzaMk8dHDc3Ldv3Ny5Z8zcTf3h0QlToiGdUnFtpD+kb/GvzWVn4WFaDlpHPJO6r5PUsuAYpq/ncfTjaMqTA3RszD9awDQBLVrA/Al1uN5DpReHLS/PowLme2LWgTffZqJC6Rx69M/QEP54ehL8PJKCJHnf0bKwKQO+VaV3PjGCWFIcpGLwB3aS46IC99SEXrRuXuDU8DsShEW3jjDD62WxhEo+IA9VLTpTkuKiEtkQ24FT1LAlSAlS0rp9sLI4NS7iYu55JbbLENCLKz0P3pklVJicsrxozl/Xbp52Uqc5Y1W7WYqtKrZYmS6uqBkai82OIxPmll2j5kcPjpjbdo/F2w+N/+rYWPwnB4biW8zlOM63taB1BHaZ4cq5OP25lpxK65Ypd0/r2Jh/tIBpAlq0gMFNEXGmAe4xlGUfyXNpJfNLMWtPtHnb8TTSfJiG8hfSu8tvMN5m905PWrxIyMaolT+GfWwkRUJqudCs7XxiJ/mgbB70QYKPBc4k3zWJD5rXSUn8QpnNjqxXqOydG5XWQm4rRkg2j23rlC5sCVK8Tji9YiFjDVeOcEuNy3Fe5DkfSOzYLOmMzDNP6TLPP72Li5dVi4q826uWTJSM2XNswtyxZywePDLxrUUd0et+/4J1D9hwy0DriJOp20pyHjtqx/m0bsG92SZFx8b8g13rijIf7CepdibSZLE5Q8XLUuo+RePKC0h4eEkVDLYoQMvCphQArl6QGLXylwgnJLkspIuPJmuLz8Ul39vsY0si1iceK+So9DzZhZ67YHJ+GwPWldiIUeNeA/sqSJZKOVNJlkpxed5OnC+bQ0KNl9QkCeIX0LOQk8XaAHkwnJf9sFlhlVv3fKyb9ZOXt5k/f+Ji851XrDbvfd4y85zTusyaxbUvXgB2SeF4maed1BX93jmLfuvpJ3Z9/ju37V5lw60ELqVQjwvaLbG90uRoAaPMF7jGQ7W7z+KGdriNQM2xxcvbaNB5Fln8/U8PRqKhZWHTDmnUeD/awAapea3TeXjelA82lmKXzbbt3QTb+6xgHjhTPitsh5MkuBherOSQzn7KscIXi+MpyEHPeWnBvKEksWR5laXyMkK/jwfPQ8Rd0C6zvGwefE7CKfADdCzkYEn5rPgp9DnB8zFmZXfB/NH5PeajL1pm/ubCJWb9kvoULdXAU1rcUXjKGSva/um6u/e02t2Wca2oelwHqh43i1TmAS1glPkCBUq1lRMKm9rf0O1SXKjOvJ4GotfRep+PRHCDEsBAxr0TNoMBDCZ0aNb2vnBe65Q4TaRYl4+7QRNwPnxipeyUcCC0rbAdtM4PcbkkaPhxESAjFbM9CzXp+dNT6ElF3TzVJDOVe9wk+dniBqBLhCYKcIwkHSOBD8K2m7J+K+TI+tCIbueDcMAYfHl+46Qu8/7nLzN///Re86hVbaZ9ni4xR8+psKy7+CfrFhff+LHrdrRZdyuAfTj1OBPRfopKs6MFjDJfYMVUrUgZJ6npiivavK0YxfHLaNX1BrK63WDk1mSVigNoTmcTOjRrex8lONsuhnSZ7J/1Ic6t6GxTw7qdyPYxCcg8JN4vZmLzlPYDicGH5UqW95EAiWeE/a5Nz+NynCNVZIR5lYSacH7fhzks5Rrw80NPiZ0oKO+v+F0fPg5amaxPnGLDbx8AttsCJbYoaNctLpi/eOJi82/P6zUXntDhlzGfUEHVsby7+OdPO6nzT665a0+rFDH4COpRFtb61GxlntACRpkvsAUGu4oqAX+13Uuz5TE0+ryThqCVbrxJetHQsrBphyxq2IQOzdrsg04JrMP0sfS8EBnord/GoEhHE3RrA/Zzfnoel+O83Kf8gWB+BEIfhJqUsN+1dgrjoQTL4QF+lpKal5qqYqfkmjCVchIB7nXLbrEgTg1/DkiiNrU89jihCc7Ahwau43rbeIvLa5/YY5Z24Vnlh7aCWbqqu/D3Pe2FJ1lXs4NCrEPUmlLrWxQo84QWMMp8sYOk0mnS2Gz8NZKDbNWAaPO202mkwYXqTnUDjh2fyI2Rif9YXMO29YNKefCxDtPHknlBolfKFW/6cazYBXi/VZxXcqxYPwS4ATz0s1gl8bnWajYQLtPh7FAqwfPisVOCgMRDnDsUh/cFQelkEk18aJDnbCcAj89x6OKSXOtDy7HA5wUOq2OX0ZOP6zCf6l9mnn1ap+mYwanQjaSzLTruhN7iB39x/95WOK8aZyjW/oDbyBy2mtLkaAGjzAtRgbfA/DvJd0hQrMDGxaW+SPK5rX3R3DfzXnorFS+3dtMK6+00TF1gvcFAJYro0sDHNjuESfMgbIuP/2CwDd1HrC29+GiythdysKR8TrcTbO8TAZgv3OoAfC4EdjiRI7sLKLtVBcsrP3hWxMVCkSm9DHiwraIst4L4WDA/nhM/LzLSgrxgCmPB/BKzEvqpkS0y4kGLBn6r8jxFSnrWKZ3mH56xxJy0PP/3Uuxqi85bu6j4T/932+5Fl/9gwHqbEtx8EQfd15JSFNfux5Eyv2gBo8wLW9ZFhoqU7aT+npXXkbyE5NXkr8kKJorjdmr+mAail5PZLgOSDEzcWp1t1u1Qxg4X44DVpfF53hZfoluxC3I2Gufh5yGG9cFOlstCDYv1JHYg7EsGfQf8bneJ+BEPlhHEQkHDz8OKdZVJWOgA1qlJScYHh+1YssVSSmiG6TwPNAizTq2fnN/GJA4bMWSEPit+SnxtJBed0GHe/swl5uQmKF4APe9ib2eh/8RlbX9x3ur2euyCaRS9JCtErRlHYt2F1DJoAaPMKyhWhofNd0g+Tfq1JLVcuTyTxp+30CodYzkPSAINUqSzTxw8bKVt8dk/FtGDPLbFl+hCatC1Aedxjy2W7cmZ6Ggk5h/P2sD3NjH0cx7EevyU8kvvdQp44SmJ+xwn1EDCBOcLXCIZH69sQgdJpXlBmU1JTtjOCjXlBVsS8zoJCJfjepeHlm2Si0/qMG992mKzoru5VpX0XkT0nN90wtI2XDCyWTmBBFthasle+lxrfXydMk9oAaPMO98+JWKpJdHmW9bQCPQPpG3gwcgunvVAgBvMGFIlJoroAnxOhyIxUUQXUoOsdcq8NJHNfifkYEES27a3E/9Jl0gwT+KzwradnM/7AyFnxeX4eCJcGDipMKVvujj5VDU3fIxQKj435IuEu5sAz+PET1m/FTJExAZJTsQXp3vDhYv5vkXNSEcxWr2yp/C2792+5zjrajZOJ6n1m79rIq7PNaaUxqMFjNJyRJu3LaJR6F00Dj0JA5MfnFh4dPJgAOOedRcKfKwhJgOh6C4miuhCpeUhj73eFlK5bDs9nW9VznfPw/utIbbMycuxvlBAdhleqHECh3QyJZqzrFDj8iHhMipJWV7iIkmWnmgk1IT5gP1WwGSvCYpbYuj3OgtNmfnXLymYf3zWEnPqyuYsXhzdbdH5p69su+K6u/dgd0zTsPGRGB8DzqZCX0vuuWoD3+laaQG0gFFaiujSbfiRj/sb/S5ZMvqQIWtBUaCziDOlw3K2c7nBTXTxs8frAvK4Z9357bzWZoFul5nYVseUsq2Oxtrck5LsMrETbO8TAfxYJNmDY10+DOlkSraSJDkVxS4HKxGIs6tJWR41VaXSRP701qCMkDN8nxK/KFiGb2GzTwS4eXvaI/P7j+k2565t/sup0EsqLOmINq7oKf721ht3Nk01FhXMMupOFatm4MSAe0VVWgEtYJRW40wahi6lVWAvD07UJAOU6Gzbhm3Wk1h6HskR3cbRel1IDZw2hja0RRctsaUH4XLFJqEEmazNPukBx2CnfLbHvAhA59bmOYFN06QFC/kmK06koIAmvcjkvrJCKhD/WNSkhP2ZqSxuhRz+8UOhRnLFw733WSEDZxy9+NFd/NpagbZC1LOiu/DmE5a21/qmiPXkUSRrRa0ZOPZFC5gWQgsYpWWILr0V9zh5K2nnZMceO1wJpDjbjnOiY/JJiCVGMsiJIrqQGixtDG1oi+4iImicxz22i7GQI21bcZOdgWOpPIk5O1UUWN1prFuniwPr8jbwyw3EZYjumNrn5g/FAc0JYJ0aTkFvfWi9Dj/E2izBctP+0LbLsL7ViwrmT5/QbXo7YbUOXW3RGasWFd7xXz/f2WlduaV/MMZX9gkki9lRO3BjyPtFVVoBLWCU1mDzNtz//jk07PwOCW8qTwYqDGTwOFvEITq11snxCrpLYB9riAU+apyVtqG7iPihOA/niZHKT3Q0LpZetitOgBuwOe7EKpIfTGT73TGU4oscJ1hOIFNtNZmJVFoGhB8jIxUflxovqUkSxB8IlgGntbknJcmTeXEvo985u8uc0KQH7U4Gvb7Cks7CC85Z177xXd992HpzSmxQZKGAqfUp4HtIcv7ilZmA9YmiND00GOFqu+8ijVd6drwi7CglWtj4AQxtMpiJn31eFyu0QTgouvnRpm3oLiJ+p6NN5UFgU+N9Ni6PL/70MmCT387jxSrSucn6rN+aie6WwzMnMRcH3keNk1TiNCSc17o8zk75KFGek7yGlFhFluWm0BeIXY6zgZ+fprPWtJuXnJX7DRSzphiZYt/i4j8+7/Sec60rr6whuZjEfUy1AruPdoqqtAJawChNT7R5G462/DMahM7m8ciu9pzOvXVgoHI2+9Cz38KKzbFOP4+3oYvh/M5K29BdRPyis+XzvHCCi8KW3vnQJMuAjmUE+ewTRTo7wXYS5kIwv5NsjONVhOOVJxxTE8qkk11e6uBcCC2/bGsN/NRAgPP7PI5Dd48rAfEFYpcR+oq0kBed2WlW9LT2KrGzGJ2xoqf4uq/dsgu7W3NH/yCfIHQ+yQYoNebmUkGvAdNKaAGjNDebb8X4cxENR39IvT9tRAYmO4hZUrZVQl84T9rnGmtjRPS6C9n5vA3dRcQvuuTxgM22kB1Q0YhOk3XaTiRYNvc2IJ2dYFsfkBh8iFkJ/MDP4wQ+lmRKLJtjBa8pLESQUMnPEixXWjdZH/5CIX9Y0LjdTWIlfharYDmukAmXAwHhe3j6qjZz8Um5HNNrCr3kwtLO6KXH97b95r//cLt7K3IDlS/4EF5EUusPA3e+/8lV6/QU6lZCCxilqYlMvIJWym8kdTUPTtT4Ycmunp3f4XLcQMk+SCrJhUSBzmJzRGeVCAZJcVTMQ1balga51iXLgNjJ/iWDN3JtvhdqRHdT4gMSg49iCAQ+IDErzvatmyQOJVWM+Pxysr4w189vBU7p7GMFFjRrSq6FXeyjHBtwYRfjecTilm32WSEDN2Z8zqkdfHfphUBbIVq+elHhTRee2LXaunIDlRcnU/cUsWoKdh3dJqrSKmgBozQvl96KUei51DzbjkkWN2RZWLG+0Cl/LNJY2/rRJrr4uU/pwcDIHsREQ5vNyy7D+70Nklzu2QfbRa1Qk+TQZAM2jf28BYIcLN4nPc/rJDuRr9JWEz9vBXG7jLB1pEzIX2keSKXn4x+bY25+WUYYSz0fcoavM/E73U2hz3Dh8pQT2/mO0wuEaFF74amL2wsv/si1g3l71ReSnCRqTbmBZL+oSqugBYzStEQmPoW6N5HwkZfhoAQdiJ0MWoBt0iUm+BwrIKWzkuQANw8a77MPgjb1eCkbOreiWyf3zieG9cFOctlHjcTs0q2dEixE/lgA99Yhc7qJbPicIA++jAiUj+eTkUxSGoQrzWNncFrisTo1Lk0612L+0B+IX7bY3Nug83Jv7cf2tZkTlrXemUeTQUVg+4ruwt8+4biOR1vXvPMSufruK0m62VE7sPvompIxR8RUWgUtYJTm5B23YvD5AxqKHo21nh2vBKuX+Qn2ierhAc/qybwYBJ1ubTHZkdVZ7Ayis0q6zJdaVphnFedBKJ0LSR6bY/D5yeaI29rk58TQFwhNfotIyi+w3wkFssJbQLJ5sxTZmlL+GNk8Fmq8sM9OYuAvLVgOJOVzukw4dfqJxy2orS+ezrboNCpiXvmOrw1Yz/xSKvDF6+qx++gwyfVX9enxL62GFjBKUxKNxOuo+ysSf96rG5ic7hr2U+MjVmcRJxMObqyw7hohXE6SL36Q1pPHFhu6GKxbRfRkeYB9nCvLAC7ulosmu+xwwObdK9aQLmlBsrxA4HPLgWTjoVAzJ7HLSe0GckIJiVSKB+ImGyzLJ0fqtVgF3epFRXPm6oW19cWBrTC9XYXXPvXU9hOta97oH4hxAD62vtT62i/gQfqssQtJaTG0gFGajmjzNhQtf0vaSj8gobejkjW5d7rD+dhvG7ZZB6TIH4voSQ77YFudbdt42/Ys1iG6GN5PIp0o0AH7wly2pUcb2l6CfN9TwzE/8aAl8/qYjZNDBnlMSQywTk2ZcGy2U7IcGOllZoUmCsprtPOSANapcRGZJCA+ERC+RyzUnLy8yFffXah0FqMlp65of/P3bt9V6902MwV3nn6xqDUFW12+vqUv0jtQtyBawCjNR2TOorHnd1iVMSkZpKwIooUDXBAUO0ByEgF+QAwI48DlsI8aiXmFu/B5pnS08pcIJaRtp9ME3dvQ4auQD/FT4gNsQzCfJCY+HxPxBU/VyeYH81SVMLfaZBPCeYB1Wz/ykB3E2S+2XRLbcNhOJDPvySsKZnEHtIULvf6Nq3va5vs+Sc8mOU3UmnKQ5PuiKq2GFjBKU1G4ZBu297+Whp+T3LAjPbXBOJQd4BibwmIDThe/VSxuGaInOdl5PTaHs6zOtm28bXv2yJ8IHg+CBNgQNuAjRf5YAHK55xY2GvyJwn7YrLAqgscI5k2JVaTz3kCzkILclIi7ulATCjttl0g4kU0NSyYPhO9X4rMC3U78Bwf7bG8dj15d5CJtIdPZFm1Y1lV4/X/+bHBeLoTTPxDjpo1/SlKPx/85yTZRlVZDCxilaSi8ZZuJI3MujTe/RWZq2EkGLdE93i8DXYLYiU8070sCftncWj93tkEX5oTPBbjHZtvHRBGdxD7pxBaB5W0bA+HAzUKN6EG+91nBPNn52C+K5IeT+FK7nZyE889FqAkFzmT5rqXJ+X0sEHKGrwsgD4Z0NuZtkTZ6YQvt7KNqLO6InnXW6o7Hf/bnO6ynMVDxgjHohSSnsqP2/B991nr6dIuiBYzSNMS4yVtk/oiGnz4ehKiRwQhtSHrA4tampP2E1Z3f4Qc9MQmyyQh95Tmk2xxHamC1MfZ4ncQ+sLNdDC37xLA+2OIXHY3E4OXe2yJoKg3wXuwkWjZWLlhp4NouvExySJ8Wd/2XSjEnKIyy14fBslmnBhLuwpIW8yZx8VohB0vK53Trhw2FaKeFr1usq0DQVozWrFlUfOWJS4td1tUoVpG8iqSHrdqCs4/+d0tfNCGm0mrof6/STJxKYw+OfSm6QYjBoCSdH5xCXCxBLDe4cWsT0GEQ9NiQE4cbKBmfk/jYrpDjFOgs9rGc7WJo2SeG6JiCZSLm/dDwZ4PsRy7nc5TheSDQ/SR2UiykBfhluQXAx5LMH4qjUswJt/hzy7YRF4cA1qlJ/G4Sh306YqP3yxMfx0mcx/mWdkWmux2WQu9Coacj2rSiu9iw68L0D/B1X15AgjtP1xocvPtdkofYUloSLWCUpiDavA0ru5eQtsENOejtMBaQDFAS8Yr1V5rDp8hgh97qErMK6/AnywhzsvM6XA5neT0BNvt8TJafXp4EWWdberSh7cXOnPY53U0SYL+POaGJnF5SsQpCzbQkmMdvbXFCjYh7TDdl49b2U+gTAVgG906oEV2mZd0SV4TOYrRmUXv0e/9zw65GjQu46/Qfk/h7mNUQXLRuy9a+qCSm0opEcazX9sk7bkW8kClcug1nKFxFAw//QvSDESkyKIkPmtOlFxtgC0NZHK3XSYJ8yUnyq/owsV8ETPa8xIIuPuDmRysxZ0N3EeuzMc60Ogh9iS2NdVGfBBNfgnssEPpByg6MbN5UlK1xrCPrD+1wPeU07q0hXcz3NUJhsrKH+q7ILCd9SadsacEdpydoOBsej82R0ZhjLzvPX0ZIIUbG43vv2Te+8cLTVt5qXXWjfyD+O+reTVKPa7/8iOR3qIDZJebM0bEx/2gB0wSEg8pChQqY19E78W/0TnSmBnurs5AhvdhoK8WB+NNxNOzzcWtz0Np2GeyiJpsPKj6O1dnHejaHNZ+XxFzEig3wMr1u+yDX99S4R0pswfWcYY3EZ/XAEeY7wvyZkF7ruPLDYpUwJ6UH6ywUJYupQDm+t2DOW180p68qUPFSsLuH5EBd3jWGZPtkMTsL6W26DTpFKTZju49OvO30vuVXWFfNeeHDsWlrMyvpA/gZmfU4eBcf7ZvoO/3eLetnf/VdHRvzjxYwTYAbmBYq0aXbcKTCL0k7D+8E3g7p7YBvfdCcLr0bup0vE0frdRKb7+Jok1z4nRe684siOoldBghz7KzlORA2xOfmAVPliWX7TC4asQO/VRLbZSSwnsorzwFuWXMlu/pJzDjRSQnToHe1GXPWmoJ53IY284TjimbN4oLdwqbMlaOj8d1fvu3IuX/1GxvqcvG3/oEYp0tfQvJP7Kg9D5A8Y2tfhH7W6NiYf/T3h5Jv3spbsp9OQ+bZGJ+SQbhsSGUP4hJJ4uznyemAWvkToRnFn+BjbAmS63yisI/94gUuh5dq3WyHORA2k+fuSBUkpFTKS+JBrm3gkQlxKy4Ov12ItDZmE6QLW8EvxzkIF5+JhGSXmeTIs2fbxlGgrF4UmWef3mb+8dnd5k2/0WVeeGa7WbdEi5da0t0enXrxid3Pe/d3H7GemvM4Ehz7Ug9wxtGXSLazpbQ0WsAouSYqlXpobHopqf6CHW6sQs96hcHLx0AYt3q1OA+W6NGm/DKYJtjBVQwP+7yTFPlL5Tlb8pJBWizo1iCgilWexz05Eh0N/jI+9NJxvtul4gU2+8JJCgYf43gloYmCMxE5dRpTZlnUpMQuH21XW2QuPLHNvJGKltc8sdOcubpgejqwPAorNYU+98Kq7sJLn3Bc12LrqhmbBnnry2tITmJH7dlH8j9b+yLcgVppcbSAUXJOdCbJc3kYs4Mat8HA5QfDCnH280S99VWNsweI5n1JIBhYRQeip5cRLtP7bA5jFY6ndDFYt4JWYmwkvmB5iHEOT6wEPuiZfAjiEJslrTTwO7yfe7scKz5gcbmVxEMGz+qWY6NhHuvU4BiXc9YWzVue0WX+7uJO8ygqXDr02nN1p6s9etbaJYVzrFkTNg3EURzzRetwKYR6jT1fiWJzo9WVFkcLGCW/bL4VA9kzSOsTh+AGOSZlCDz4iVoWdzGfE8ZJr+R3Q2ziIs0a7E8CPsSuwC8DtdNdjlVYh18MicEWK9HFzz5S2A/xuvV7G8DnNCHJcVPgI8FKgX0kvLWEnIkksSQnkWwslKp51IQXvWOd/L2dkXnxWe3mDU/tMOes091EjaSjgFOqC895/w+31+xdj43BLQPeQLKEHbVngOS/t2zQU6cXCliXKEouiaIYK7rfJgmuE0HrU/nzksYGRSORwRBIn8SBiycuiTsfBldP4AdJKFmG+KiVP5FgIVDFL4roCc6WWexybYJ05COF/WJaXRT2sU1CiWEuRHYfiYUWjcuxJreumOC49aeEGojbzQSnmyeRrM/lBUIugD4UHNfy+os6zMse025W9NC85FMaB302hZ72aNOZqzuWWteceIncMuCPSC4mqdfHeRXJDaIqCwEtYJRcEl16C9ZyTyTtTB7UqOGeoyEyuIXx8hyJc2+FCRNJT8U8yfK9JX9iU8Dpoth8Z1rStmihzy2HbetkO9DRwma/mFZP+1mC5YktAivlczpJsrUl7fdilSRuHayFVuhN7NDjJzL9cqlDQXTe+gJvdTm/r6inOc8jXcXolPWLC0/9z58N4qOZEyVjnkLdn5HMeVlVwF2nP0JyjC1lQaCrByWnRDjY75kkvWwGYA3Ia0FqytaG1sE5U8WtkeSQJn8iSYBxpot7B5F6rJQ/NCTEksnxps+Rwd26pPcxaUSvlJcsj3tqxGNb2OxzgmWII/FZgY+Fs6TI8VOS47bETCY+J1w+TW6ZBUo4e13BvOoJHebUlfAq8wl9HIuXdhWftXpx25zuEt0/GGML6ptITmRH7cEuoyvp+3LrVr5LmrJQ0AJGySsraXh7EfXBfY9ICdZPMoRSb33OZlhN4tBScYtLk7iQZMkcbn5ukyBHOS4mQbZNYbFPzNss1IpbbMqxZvp5WmcSCx7LhuGxDyF+9JnlweA8UTP5mJ8TkrgV9kGsx/uBizmx7umA3HBeR5F0XM/lry/qMOuWBAFl3qDPp9DVFr3guCVF3HBxVvRvp+Il5ps14uDdeo0395O8b4veNmDBoQWMklfOhLihDL0TJjPGVc3L4GPUVMpxvnBwdcDlJYyTHsZCvC9pEl8AD+iiuT+fM73iBbbksRXmsSP0QZf5vc0+UWQ5bhJ/KFhpsN+LbEXxQkllYmN+mVawVQbymL6Cefn5bXzZfyU/dLZFp0yU4sdYc0ZsGojxIWPevyap11iDq819ib4128RUFhJawCj545JfYnDbSJLedG3HNnRuIATSU+scjB0ovTsdd3O7ONtB3GVMGbfCrY2zDzM6OJQsz5EqTJjsMpMchhSJ0WSd0oltXYFul2dt8cF2UStWQSdFRuKHlBcs8OMxncAOpGK+iOxGCueNzIbeyLzy8bggHTKVPFGMTHFZV2HTW779wIw/HKoscB2Zt5Dgx0i9uIfkE1v6onExlYWEFjBK7ogKXTjd8qliyQDo2iwYFLm3wlRIDeNuniw+Z4p4an47g4uFuFzvt4r4vZcd7LO6gwd4r7scq7AubfgYYR733rY+u0wnaCRXJnbBJ6r12BzMa4PwhzITwvlWLYrMH1DxsnrxTJeiNIpFHYUnXXzcouOsOS36B/i4F+w6eh5JvT7cYZIPktTtksFKvtECRskdtLZ7NLV8wJ8bSAFUNidZHUpOhQTrks4OwNQ42yoMohwXU6wgbj1Ws1gFXVh4CMnyXBykfNwGdrCM7POELjb11g51nhN/1gZSeIjthe3gucGGYm3eGkOOivOGQo0Tt0soK2EO/bHA/7wziubstboayjPFyJxw8rK2s6w5XR5FgrtN97BVH24m+eLWvgi3D1AWILrmUPIIzj5aKaqAAc/hBkDncwN2SJgjQ3RZiiUYwNkO8kgJfSw+mOguBlxxAsLB2idYvBkEk+UlyaEG3QmoVOSwx+uCy/M+aiTf+q1tQ9YHZ2CnYqHIUtxkM8okNdE8BVrzXHhi0Tzt1CIXMkp+aStGSzuK0XOsOSX9AzEuPIktI8ezoz7glgHvpOJlj5jKQkQLGCVfbN5Gw1n0TGqCcQ0uqzLWyLqzBEGnYtAtI8yzCYmLtNQ8GILFJe4kbjvfCz5LhAd8AQ+V+NklscAvun1MdgiVlyOK6EIqzzayPPGGjxtucYGdEmpE3LzS+3iQ57a6hEJ/KVnZXTDPOaPId5VW8g0+vvaiecb7fzgw5XhBxQtu9PB6kgvZUT+2kPxYVGWhogWMkitogFxPnZz1gDWndB4MkJVweTzI2l6wDk+FQZekDHJOmmMdFWOEfx5Wz+JirgWSGyST6ooEaZIcl5U8jnhEF7J5MPzyYFqFQ3ZBrAfCPl6Om8TPRUlGuFixcQhwepiP+xtdfErBnLQCEaUZWNQRnXnmqvYTrFmRF8vVdp9NggKmC746sYvksq19ES5epyxgtIBR8sM7cO+jGFfsXCQOCwY+6ficSZAMfTboSUW8MGFeqBOch9E1RdoOCwIhsdz8045bRfzeZNgXCEhs5yGdVLFs623oSabzw8M9bO+DjlZ01yc5dh6OJH6HiwUuS/L4Dpd34nLcWRrbe5Rmoa0QdW/obXv6W69+2HrKocEEPzzeTZL+/60tQyT/Ro91r5jKQkYLGCU3RCN8q30UMFXHNjcIovG6I2VYrE9ys4MqWZl5OM+6OZSJAx9DXylOPpdTLc49MoJ4eYEjllseY3Vvk8a29YNKxQta9LDFEo/L9UKN5HA05WNxeTSldjlZSa79gq0uiR3mPPmEIp99pDQXSzqjJ52+uL3Tmik2DcS4Z9I7SM5nR/34Ocl/frUvcr9llAWMFjBKbqAhDVfffTzrZMgQFwx0rAa2BR6RJFaeleCW7YSpMoPPw0wOVjEYs5WKJ1lpjQdvMRlnccxqLp56fs5JuGWwixpYiS6Ej+OWgxa9WxbraOUvEbbdZG32hUITOXlZZbHquPiKbtl9hAJHaS6626LHnrumveyqvP0D8WKqJq4g9QUk9fxkd5Ns3toX7RRTWehoAaPkCRz/cnK4BoTu7FD3ZBycQ438PAuCZTMm8DxlCWRnXJInZLMB+6jxeRWSXCwb54IAvXREWks9P1LFJyR9kuMKD+d1tghNgQ2k8Alys3FMyAn8ZULNZIKi5YLjC3rgbpNSLJgTe9qj1PVgqHjpoA53mf59EhzAWy9GST5FciNbikJoAaPkidNJcBG7Mmjs4xaFCXRnV8PlJLlZyJsJhPmZUAIFXMznYnROIXYY9xmspOOuZUjlYgEq6xarO/Gt94siuqN8OX7rCXTbhM8vFeMe+TKP8wG2vdicYMLuJd7FFEy4TcD5fbrKaVaKUbS6rVDA9V1CNpK8laSex72AX5F8sFTki9cpCqNrEyUfXMo/rC6g8RC/6BLCUZNg0/rQ+TApXq+ADKHU27yquRyQqMsLB3iBrLQjyWWL+kwcpB47iFd8Tql48PisJK/FQzr7vF6e43yiS5PyWQUd+/G4nCOwnxo+o8hOotlYII7Qh1sGHL8sjCrNRLFAf5F58j9/e5fZNBhH/QMxjnf5N5J1nFA/Bkn+qVAwg1et1e+PkqAFjJILIsO37PcHAM5kNeUGSIe3p1iIywsHaSGuOK/LBxXC3hnGUARUAl6JBHFSk7IgFWHEZ+M2KLoY3FJTMQdTYKNxeayzbX3WgA3YD5uaZBI/FzMVBP5s7Iw1kelK391KaTK62qJz1y8tdcaxOYnM95LgYnX06daVz5D84Kvr6v0wSrOhBYySF1bQevAMKBjspBeFW+eTjiAtMQgx3LzeTtSArCPJFSmbQbBuF832QmJVzqM2SZHBHb0VJhVPioXQD8QvThcSX4LL8e+pbdjndSeSl9gksPk5SD4EiN/qFcTh7HZa05xFv57DmNJ8dLaZUw6vXYzbCnyE5BnsrB/YY3wdFUvv2toX6a4jpQwtYJT55y3bMLCdQtoScVgyG0JYn+4ISHkuFb0TT8qwBL4wP52asewo7vLZSqcwlQb7FOzIFAleE1zMLYsh3fmDRgoM0Zziw64YEd2JGNAB+9gWj/fDx/5QaCLnZLJiUWSWdyNbaWbGomj5/e0d/04qbvdRb3DRmXdcuSE6JqaipNECRpl3ophGOLnlfjc7HMF4Fw59Mmgm8NxZ5DQki02grnzeCjMHLhdHB42tIO4JfC7Pz8stCJIIHtyt7rEO7qhBz+IcFvEF85MCS/ziAtDZxwb+7DyBnz2hDZ0XIrmpXUEuBxM5REJ/ZelbEplu3X3U1IyT/HCio3t7sR13ik8fq1Z78HDvpX/jH4ipKOVoAaPkAFyCPDqNlOAiWRj2QrJ2Mjg6MJAKpDg9TAiAO0xJ0qrMEODyZZAPITvjCk3Ws7MQlQqAcqSYKHtIIjWPVSQ3ncxFh9edUCt/LKLbx4Kw0+pusk9YfFOD9DVLcDVX61CajhLJD8bazTdGO7iyqDO4u/SXSD53pd5pWpmEVlilzPQ270rOoPENhQuu/4KLtjpfQsqwZHyhWSk9gaKTLC8VKssrnxGerJRBTuf3OWWJaYeUCpVz2U9vlHfbJPZ7kai3qRFPonOO16WBj3WYVpE4TYhzjsh0KVIydh/hDtRK84GNmXdNFM2W0U5zJJ7JJz9r7iF5Nz3ufjEVpTKtsEq5zfZK84JdR7gGTAq3qpx6lZlkZOdJhuOplxPOKyIeZzNeCcj4ON+N/oRo1AZ5XBBwH0gQZ4fts/Hsa3KSghw+xkHJSB6DFPmTCOvJkpHnYuEWl9mAmzcu75n9/Mr8cjsVL58c7mpU8YKr7L5pa19025V9+o1RJieK49TBAkoOye4KaCX6B+LC8H0HLzp0857/nSiZNXilLNS4Vy0v3w741s+W10XETvJATNb4RGyOjcVmhPqxiYiE9PHYlOir77ZkhMv1epUYEF/luPhszMY56mLsqz4vW87PfSYXCnrvS8fR4rgV1jJx9rFufdbhcthkm7VAnz097cb82YUFc+qquS5JaSQYGQZKBfOJkS5zPxUxDQC7i/6e5P1UwOCmjfOKjo35RwuYJsANWK0IFTDPPC4e/6d39Bx7Cr9MFBXS8euOoc3RB1CsHKUiZvfRkhk8XDL37x839+4bN7fvnjAP7J8w40igufEcsAwWMqTniNcB36BQ1CTOvRUbT+nUoEdbrcCQPpyXGsRdjH3puJsfjfgqzG916dkZ5Nj5WRcf2kSfG4s7jHn9xUWzAbf7U5qG3TEVL8NdvPvI/hvVExQvXy0Z8/tX9UVj4ppfdGzMP1rANAFuwGkl+rfHRRodn0jqF88pja54c+9I+hTqOoNvPbbEHB2NzYMHJ8zPHx4z1z4wah4i/ciI/E/4QoAH8vIigPswbmPAHczjY15Hn54Xmo+xL8zPzIvW6dxn4nZeUCnOHqs7P/usziZsr8+dJZ3GvOE3imZtQz9hZS7soeLlv0c6zQ3jbY0oXvAQ3yV57da+6AH25AAdG/OPHlanzA+RuYBaXAzrxPXtccN/cWFw7iji2iQFc/66dvOaJ/SY9z2/17z9GYvNxSd1mM62CsP3NEZ0rPJQRMwEZCdzTDGvDaeyKsziXNkQbO9jJSlehNoWL44o0sGgWcBZRl8e6TA3NqZ4ASha3l6KuFeUaaMFjNJQ7D1UULx8joRvHbC8VMrF93D1ooJ51qmdXMh8dONS88JHdZqedjvAS0o5HEiiYZ6bz6WEMcYFLNBc8RBKFufDM6uaRw6JUs86a75QEZ+d3/msbs2agUFwgkYnJf8cjSPz3yNd5vrxdt6n0wBwn6M/py/dL65ar98RZWZoAaM0jE3b4yiODe5m+0ESXPcFjK8sxukL2M0zOD7l/HVt5s0XLzJvffoic+bqNj6TBsx2FRvOB30mywmLCj9fhQWkdk1ZCQkLlSySXykyd7AlfnRCt8DkHWwG/eZYh/nxWMOuOHiE5AqqcK/euj7CpWYUZUZoAaM0DPpxh3sdfZTkyST83aOKZnRpW6N+7M2MRR2Ree7p2CKzxLz0nC6zmGyHDPgBlcZ+9qUD4e4laGFKKjMMWFyBgTYdqU5S/ARzsC/Z+uLjXq8tqF2O5eKwTKUa+Hi+NdppvjPaYUbEVW9Q0X6A5BNbN0QNuDae0opoAaPUnf7BGGcbrScVxcvF7LR0xnGxvRQ35BzN2bKyp2D+4kndvEXmpOVFX4S4bQpu0Ec/7a0YQZrMh0acqSWERiogpitAUo/LamATkpP1JkwWmysT9Nv6kN6KL7eMklw91mG+PtrOegNAvfQVksu29ul9jpTZowWMUn9is5Lad5I8nSRVrHRHcaEryncBA3BQ77NP6zB//4xF5oRl8nSTrRdJz6duE6lioGplkA3gqjUZqu55yWSSCY/zch+mBHq1rS/1okQFzIEhue6Okj+uG2s3XxvtMMP1/BKkuZ7kLVS8YBeSoswaLWCUutI/GC+m7l9I/oSkbA3ZVYhGuouNuL3K3MGxMWetaTP/9luLzZNPqHycQKUzkJxn6q0zSRwai3WF81Z4iBQunPTBDBXmnWp5cwW7kHbRUIUtMUp+wD/ddWNt5vMjXeZwY66yixL2ZhKcLn03exRlDmgBo9SNTQNxD62y/o7Ul5FU/K61xXFUaLJf5ht6C+avL+w2j+tr8xekCwldqXClMWIaPjatLxXyRmaGwGaNGvROKlHNXyt2HsaBvNZQ5h3Ukj8fbzdfGu1q5K+Hh0j+jtYJd4qpKHNDCxilLvQPxG1Ul7yC1DeTVD3LiAqYYoHvRt1cYDfSmy5eZB61qs16MtiioRqVYlMVEUnc7gISg/H6VAtx8wYzTDlLDdh1ODaH9TiYXCDFS5v5wkinOdCYLS9gDwl2G31v6wY940ipDVrAKDUH13qh7uUkuK9JD3zV6DRxsZg5LqZZOH5pwbz+wm4+sHcqwmGimp5m+gPL9JZXDnJnkj8XhsaMeXC/HgQz32AjGIoXXOvlUOOKFxyo+1YSHLirKDVDCxilpmzaHuO6H+eS+m6SPnZOQgd9A9saN47WnLPXtplXXdBVcVeSIxy2XRp86Vmm+RZwWrJENu2s4RIqHtcyXV8dwDO+c7ceyDvf3ETFy5dGOs3BxhUvOCv7kySf3doXNegMbWWhoAWMUlNovYjiBVfZPY4dU0AFzKi7SFwzgsLlaSe3m5ee02naqlQxM60bwtj0l5jgotKndxFNPmd9uX9fbHYd0QpmPsCWl19R8fLR4W6zt3F7bHF4DW4X8lYqXhp0hraykNACRqkJm+RaL2tIxZaX89g5DdoiM9oKX8JNZ3eaM1fPfk9YIwqL+S5k9h8z5h4cCaE0FBxw8gsqXv5rpLNRF6kDKF6+SnIFFS9H2aMoNUYLGKUmxLHBvYb/keS5JNMeH6OY1q/zuVmgRqxfUjAvf0yn6ap0E8iKVM6b+1uRXkKe3tpxGkl/9qDuRmokcsxLOx/z0sAtL/iEf0DtG6h42SEuRak9WsAoc6Z/IO6k7jUkf0QymxuptMSQ9ti+NvPUkyqfWj0ralh9VF5U48ubh/bH5u49WsE0AmwCwU0ZP9/YY17A90neMHKMb9SoKHVDCxilFjyb5G9JcnVTxkbT3R6Z553RwfdQmgp3xd6pmMtQn8cyARe1++kDsRlu4MVHFio/xXVeqHhp0EXqHA+QvIG+fLd/6/TGF8jKwkILGGXWbBzg417OJvXTJFOecVSJVlrF4bU8dn2buWBDlWvDBEz3dc/l/Zl63vkpcW4ejM1tO/JYXrUGOM7le2Pt5tPDXY3e8nITyUu39kXbtm6I9ANW6o4WMMqsiSJzPHWXk+Dg3VlB61es6Bq6lq0n2H30rNPaTfe0j4VJk1rr12AIcIvI02gyMm7Mj++PzVE9L6Xm4C393miH+epoZyNv8Y6v14Mkb6R1wg3sUZQGoAWMMis2bY+7aLV1KanPE8/smIhNe5yn0bUGPHp1mzlt5czOSKrdW1B9SWFkvt/y+/bG5voHSrxLSakNKF6+QYXLVpIjjd3yggN1/5Lk+1vW61V2lcahBYwyY/oH4nZaP76K1N8nmdNVdEdLprPVBrFlXZF5wnFT70aqxlwLjfQ8k1nzB85I+sE9MR/Uq8wdFCxfHemkAqajkadKg0dI/oZ+hHxra58WL0pj0QJGmREbt8fY33MBqZtJetk5B0ZjU6QCpqVGMVwF98knJAVM+OKcXv6Cp/kWcFqSG5rhErBVy9neHyY4KvkaxMFhY751e2wO6/VZ58QYyZdGO833xjp4K0wDGSJ5M32Ftly5IdJbdSoNRwsYZUbQ4HwarbDeT+q0rrQ7FSOxmRgnsWbLcNKyojluqWycwsb8bJ3gfKE/nZOdI6T67oHJ5soyk9x6cfuu2Hz15pIZ0+FvVuwqFczHhrvNNWPtDS1exkdLR4cOj12ytS/64pV6lV1lntACRpk22HVE3VtIHsuOGjAWRROlqPU2PeP2CGdVuTIvCoe5FQ/pTVYzW1523vnd/IUtRb/eHpsf3R+bUS1ipg0+s51UvHx+tNPcMD773ZWzYWy0ZO78xa7912154GfWpSjzghYwyrTYNBBjNMYdpl9BMpuL1VVkgoqXkpyJ1HKcQQVMeJ+nigcrz8AHdxhKlhd4WQ2zCDLhcQIqPpd5AsfDfPv2kvnJA3qV3unyUKloPjbcZW6m4qWRdd84FS+3X7/T3HvjvuEjB0aPWLeizAtawChTQsULBr6LSX0HyZwO2s0yUjJtJDVdZl7A7QVwcbtkTJ7+6IxMlx3qYKqlZHNT+WyklxAeLzNfHBvD8TAlc+19se5OmgR8TjdS0fKJ4U5zHxUxjfzcRocnzB0/22Ue3LbflCZiHP9yTCKKMj9oAaNMCa0kV1H39yQns6OGDFHxMtyi5y6s6IlMDxUw1ckOP+W7c6a9lYWAx3lZ9ynpXJ9DiuhemVdwXZiv31bia8Rgq4ySBm/JLVS8fGakyzzc4OKlVIrNXT/f7YoXuLSAUeYdLWCUSekfiBdR906S32BHjRmKCqOjhQgnUrQcOJ26BzvbKo00gQ8qm/baHaKzmqaCzxUpSbFCVMmD24WyKWFsPhmmb8KV20rmCzeUzKFh61Rwtp755miH+QgVL/sbe40X3vJy+493mvtv2sdH3NtjyA+THGJNUeYJLWCUqvQP8u1rX0CC673U5UjBUiFqOzbRmt/DzraIJUVQJXjVKhW2v9g+DbxOgPTZXFlaaiuLg1XrrRSfZ7D15ZcPx1zE3L9Xj4s5SgXL18Y6STrMsQYXLzjm5e5f7DYP3rrfegj5PA6YQklPgFfmFS1glOrE5tHUvp1kztd7mYTOPeN849yWo43+u7raZX3vxmCUFWm7OmGOSHmJk4KCSW4FrLNaTkzVTMX55gEULdt2xOZTPy+ZH94T85aZhQi2tnxxpNN8fbTDDDW4eMHZRndcL8e88JYXxn9DBsy7z8vL10VZoGgBo1SkfyDGnaXfQ3ImO+rHPT0R336/5cBwgyKGoVV95bV94mXN5jmv85VhA2FeqvywcW6pc3GfwT6xk60w0FNLmXcODBlz5a0l87HrJ8xNAzHfR2khgONdHpkomA8NdZvrxtsbfqGkkWPj5o7rdpqHb91v4sqXysa9jxRlXtECRimDihecFfR7JM8nqed3BL+r37FubOxbYrYeKA6S8iCDdaODoOApLx8ydmYeII+RxsWzoaSYSTWZIibR5xN+DtSM0QB65+7YfPYXE+aLN5TMXaS3+m6lO8aK5uPDXebuUrHhxcvEeMnc+ZNdZvudB/ngXfdWow/e9odsryjzhhYwSiUuJKn5KdMZcPXOj5D8f0eHJu5oxfFogn5GD/tN7+VkBoSUzgQOl+u2mjCsJEkcp+ojGxe/NZOo+K2AMGe+ixh+bH4OyesZonL3+odK5v3Xjpv3XjNufnR/yew43FrFzAi9lu8OtZkPUvHyIP+OaCzDh8fMLVcPSvHCW14q7rZC4B5RFWX+iLDCU/JNhJvrNIAXPxybQtEsJfWzJBtJ6vnA15H80da+6N47tu8/eXl34Y7utqhDQq0Brmdyy85xc5hGpeFxnCYcmz1HS2b30dgMHCqZ/UOyS2QEP7Hp3xAfM95w93mLjh6T09FbmwRNtTioND+otgw22WYtNU+j4DUSNWHxUqm4aqfxHaeqn7kmMuesi8yJyyO+7k4H+QuNftI14AB9F7453G6uiTvNEN74BjN8ZNzc8eOdZuf9h2XLC7/P8hm499wWyAdIPc9cds7DmK9V0bEx/2gB0wQ0qoDpH4hxptFfkFxGgmNg6gVOv3xpVDDf3UIDDxUwa5d2FX6yqD06RcKtDf7jcKYNipmHDpTMbbsmzB27SubevSUqZvhmmUmBQQ33mOzXgDeburioqbj40nHJEJ1N2FZ3fvahg2Zjoovm7Hoig6Robs3kBk/2WZ1t1iUPBUtvFxUxyyKzvteYdb2RWU72ki76IrdFfEVkV9TwvACKf1HWwAPY1ytLL/fJ6e7hzDYv9PE86EmStEqzso67SX9xvMvcXWw3Jf9YjWPo0Ji57ZodZs8jR7l4AfJey/vr33dSqL+F1GdRAbMbea2Kjo35RwuYJqCBBQzucbSV5AR21Acc9/I+krdv7Yv4Sh8/vXfv0uN6i1/p7Sw8C/ZCA1vqh8ZiM3goNj9+cNzcNDBuHjkoF3PjT54alBbQ8VWQPik2ZGDOxNF6nYR1aE63ttdJ0IiXcXmii+bsWsNrIWpkuLQ2evY53UWdP2uLD3/FohxAjfcm3BrD8/hcNLKM7PyikyBA4KBa8cv81uQ494ENREePiZ6Ay2OfFRgU6lrVaZadt8yM9nbU7w2ehEO7h81d1+0y+waP8XNyu+SS5+90ec7UX0nqH1AB09K3EnCfpZJftIBpAhpRwPQPxj20ZvooqbjXUT35JUk/FS/bxaS14U27Oh7f1/FBKmBeY10LFgwe2DLzkwcnzPfvHectNFJISGGRLSrYxzp7fFx8SRyNWwabbIvP/omgES8jtsTYn7Lnjlv7yGpILLRuteQ8sK3L6jKwJrb47J+IXYjoiY97G3DLCZfhdDTpeKgLJbs8NNl4+FjwQfMxsUzPhm6z+rHLTcfSmt1ebEYcOzhqbv7ugDm8Z5i/e/wa3HO0NkiKGvZ8gNQ3UgHT0ueE6diYf/QgXkWIzR9S+9ti1A3sM39jWLyAsYl47NhYfC+tJBfISbLVwdaCNYsLpv/sdvOe53WZVz2hw2zoxb+pDCVOsnhfEAwHS9e4sPOzR/5EWA/yrCId+TGAcU4is8HPT40MFPKYzgekSx5PLPYkto+JAp1FnF4Xv3Va3HISr020lMfTZAc4tiolWx86J4WOgllx7lKz/qmr56d4oSex56Gj5sZvPsLFi38prmdkx1jiYwUXr7uTRO9Ypcw7WsAscF6yK8auozWk/i0JbhtQL1CcYNfRT9kKeOTwRIwzN0nVi8cHLOqIzPPPbDd/c3GnefopbXxwqhtM0CUDc6rxfrRhjgxSMiij8X5rOFt0N5EOm30iHCUHD+CZ2JRCjYidn7xlMevlyds2Rg104GJoE51gRfK8z2rOh3wP6d7PDqJaPPQ7bNyqopflWQdVBG3dRbPmiSvM8rOWmkL2Ss0NIKZfCnseOsK7jY4dwMmA1fGvx/Yk+B+9m16IcyvKvKEFzAKnNG66qEPxcgY76gN+rV1F8pGtfVHZ5cff8LQ+M3B44o5SHB+1LsVSpPHt1BUF87oLO80fPb7DrFoUBYMoKfKXEhAO7s6Jzs3LnQ2JiOFt6GwnhUDiC8VOFHBxG/Di50OOn3xYBI3V0Tof9+JiL+swbYy9zkmIP8mDAp3FO4HkJC7SrCF+MVJxC8dpYc7jM5MUUpPlB27TvbbLrPuN1WbxiT3zVrzsuPuQuf0HO7h44ecWPkFHJZ+A417uNJedLZaizCNawCgXk9T7uJdfk/xDpeLFcWSktH143Oy0ppIBZ9E854w23hpzxqoCH4sig2My0pQN3oTLcT5nOx2N+MQvyxC4h80jv8zFwj4rzmczMJUykkxBLjXly6GJDOcD3HFc5meT7UTn3kulPK9wJ6/HYkOhSJPoWX9I9vHLsM6ovWB6z1hs1ly40nStmp+rBZTGY/PgjfvMPdfv5hs0OpLnHrZZyCsBXIG3pc8+UpoHLWAWMBu3x9j68uck69hRH7DJ+TIayW4TszJ37Rk/NjoR325NpQLYGvOo1QXzF0/pMGdS7wgHdFFkEE8NrtRYU3Qb5JZtq1PriwgJicDmeaRESPtnIW5+15Iz7bfCPskCLoe9MFizIiaTzrNx6wdOF79VLO7xEpdozuceNyGdmY0XOwtm+blLzYrzl5m2nsZfnA5MjJXMwzfvMw/esNeMoXjhp5h+nu79YN1JOgVsI9GbOCq5QAuYBUr/9rhAv+JfRupzSeq1LVtOmY7M17ceN/k+8zf/Zl9pvBT/qCRjh1IFfFDHLy2Yv3lqp7noxKJ9s5KWxb6DaZ0m0q1pY9wmPhv3XmsD74eP/eLxfpLJCPMkF/PSREb6cUXQVHt+7LNOyZAY+63OJvRAXONigljO55bLkA6TXaGfYL+NMxXi+LA6V3WYdc9aY5aeucQU/I2xGsvosXFz17U7zf2/3MtbYTJPtQrpLGvhOLbrzWXnTG8RilJntIBZqEQGB+5i60sP27UHKzmcMv0hUqb1i21swtw+EccHralMAq5A+8oLOsxZa+3upGDkheZs0VklZOB3ZhJLBjWXyzFM5MAptGIHQg37SXGS3XUUiluWz+V5g+VZQcM5PFk/+0RHWzYfB2w+NWxCh+YMwi2TdRtisU7p7HJYB85rxSV7knwXQR9RsbL41MVm9VNWmo5l83OKNBg6OGbu+tEus+u+I3z8S/gcWXeOREmpwOXR337S7oKpKHlAC5gFyMZBvh4obtb4RHbUBxzP8o9b+6KBK9dPbwPPyET8wHiJT7VWpsHy7si89kkd5rSV8m8sA7+APrEQEx97vS692G6yNvtEOGqdzu9wOewLDRLkpuzAdHibmskKFxcJH5/9bNh5UjEx2A9xASLJ84rNsQawIfGzx+N83h3EsYy2RUWz4vHLzIrHLTNti3Fx6/nh0K5hc8cPBs3eB6R4SSM2WieObGbA/SR6E0clN2gBswCJYvNo6v5UrLqAC5d+mOQatqbJ4OGJXaPj8a3WVKbB+t6CeYU9OwmEA6voMrgntvWRkdjS+Jj1hfFEZN5KW2XwoYc2qBZjHzX8GHguPAVxNE7nSXxiW52T0jHAHmuzzzZsWz/bVmdbnGJbP7cpvywjwS7TCnYZdW/oNqsuWmUWn7zIRDhoaR7ATRj3PXzU3HH1oDlMRYwQPPf0ixDI518HtayX5+EWAntFVZT5RwuYhQmOfXmUqHXhVlr3fXSrvVXAdNm2c+TokdH4Rmsq0wBD5OkrC+bFZ7XzzQ3dSOTGHhmMg4HWBsSmieNBDLZVnM+Ly7NRHtBTEhYliaQKlVD8RLGKj2Wj1ge4Y1dmPvihQ7M2+1hPch3ltuQkJPOk/WSTw8dsMGqLzOLTF5sVT1xhOlfOzy0BAJ7PrnsOmXt+tIvvLO2fq32egG1Rp0Xw3vySPky9VpOSG/RWAk1ALW8l0D8Qn0wdjk1ZwY7as4vkFVS8fEfMmfHju/acd/aajl8VC2b+tr03Ibhv0sd+OmquuX+cR6fwFgEAXyF3gwBubUw81NvvmLdtE3pdDGS/khmzKtm1DduBU1Q7YFo/Opfi1leJHejQrO19lOBtHxNFdBLWoTnd2l4nscsBLt/F2pe3m6WPWWq61nRN/42oA+MjE+bhX+8zA7ceNBMTfPem5PXY55/SbQytz2N/Og6LdBQuuAP13dQvCPA+KPlGt8AsIDYOxJ3UvYqkXsUL/uO/SPJDtmbBTTvH7hwej1O3GlCmBie4vODMNrN+SeQHHfvH8GDEK2QZnDgGgQ6TDGd7gc3CQ5idsjERbGVhCee3Ah8LGdn5WHyefYzA75aHxg0o0sJ2un1m1mYfdEpgHfiYKKKnmtTy7J+IfVzgciA4ULfnpB6z8ikr5714GT40Zu7/6R4zSMULdiEx9rm6thqIOkFTli2O+0jBMTCKkhu0gFlA0Pr1TOqw+6he4Dou75/sgnVT8bqL149QAfMDUsvWo8rknLi8YJ53hpzxgjePh/VgQGIfG8nAHg7I7LcO53PCPoifkpgThhTOI3EFS5gQmuKyy3OPK52NSCO+4DG9TxKgw7Cd1SWfTR8TRXTB5SW+xGas4nxixqa4qM0su2CZWf745XKg7nwVL/SEju0bMXf9YIfZdfchW7y4Zyk4D9vOGRL43LuWvGdiknzPXHbugr9XmZIvtIBZIPQPxvisf58Eu5DqAS4x/q8kcz6LaLwU/994yQxZU5kmuBHkM0+TrTDADkXBYC+92G6yNvuc0GQdic+KVXjrBsROcKYtIRtJTbwMLMvlBQIfxE+Bn3U7eVsEjUSsj23x2T8WIM/fYhXuAt0tiyEFx7p0n9hjVj51pek5oYft+QJnFu29/4i56/s7+GBdvFZPFR0qm9YXvLoqcMZhUma9VVVR6oUWMAuH40lwt+l6feY/IfnK1r5oznep3XGkdHMpjndYU5kBXW3GPPv0Nr5qrx+sMAjZwdoLNaInQ1jiC2KYD/4gltpNBD9JeveQmy89f9kupHA5qeXRPH4S4IchtvjLluHnExuN6KKILkiu011MFNFJMjlRZ8H0ntdrlj5+mWnHtV3mr3bh4mXnHYfM/dfvNsf22xsy8nOX5+yft9cIVsVO51hxjhDxDZDczJqi5AgtYBYA/QNxG62IXknqCeKpOVjB/TMVL4fEnBvfufPYbUPjMe6fpMyCC09sM8cvKwQDsxugxAEd8IDFtpuszb5E0PIUBFwM4gh9lcSR8luFiwVr+JiNJw9rJ+sD3LEtDrTex50oogsuF4TLZtuKNYVCZLpP6jGrnrXaLDp9sSm0z+9qc+TImLn/ut3mAdzTaGg89VRD3OtA76SMjJPzvM8rPzMj0X1WV5TcoAXMwgBX3cXWl3qd2fMlkl+JOnf++UXHlw4Mlb5Jq8/M6lWZDit7IvOYPvnX5gHavovopACQ4doLNSx+koDzh1tcJr2qrpMgnwU+K5IbzE+TLNPmBvkwvA+T9cMG7LfLkBwbh7AtiugC8rln3cWsz9qsY4qMKS5uM0vO6zW9j1tq2pbM74lxeH5DB0bNvdfsMrvvPsy2e8JOZbG+Sri4pASJrCY2NCv4+L9h3nd2ElSUnKAFzMIA9zuq1/3vcWfa923ti46JWRuiyPxwZDzGKdnKDMGxME8+vs108fG8dnCnxg5IDA/k1se2bcTtprTf4fyJK5mDJ0pOSTC5ucJleKGGxfvsxMsRH/BxOK3OPSnOg8n+sYAwP8zl1tvQSStGpuv4brP8ohVm0Rnzv9UFT27fA0fM3VfvMIcGh0wJlSA53XMWxVusuWgSSuLAvWbnTUcJceDKuz9jTVFyhhYwLU7/QIxTpl9OUo/PGjdr/JCJan/5//1DpZ1UwPzQrmOVGbK+NzKnLJfdSHgLbZcatHiYJ0faRwKbfeKRqcIxLCSp42FmItQ4cU7pXEsTfNYPJAIfYi7T+aRHCx2G7ZhUvo2hTdvQY9O2rN30Pm4ZH+vStnT+7mPkwPVdBm7abx78yW7eAuPg14neShnh67JSDXknqPfzcIvmaurwI0VRcocWMK3PE0geK2rNwY3dvrB1mvc6mgk7jkwcOzoW/x+tUPXW/bOguy0yj1rtbvSIkchNzg6FJviyfmqSosXN76Z0TqXiJisuj3P948gUXgPGL4vigPPYh7h42ef9zpb5RRdB44oXNmGLxn1iE7Q27Dqhxyx9ygo+5iWa760uxOjRcfPwz/aagRv3mbHhidRr9bCafj2V4tzauGuZQHXARYKtqt8jRa++q+QSLWBamBft4Js2/iHJSnbUFpxt9O+0crtXzNry0setjQcOT3xrbCJ+xLqUGVCk/+xHrymaTipkeHyiRsYpO7TBtr7ET5N1Jv5Ah9+JnSQikrbKJevhiVQIXPahGesSoYAsPfSJ4rwc97bt2XZzku7j4vM2vVftqzrMsotWmqVPmufrulhwltGhgSFzx7cG+HgXf3E6h3vuopZj4xVjhHvtqZxQEf0BeiO+Zy4/10cUJU9oAdPCFEtmLXW/SVKP1TFu7PbNrRuiuq3c7t03sfPImO5Gmi0blkamu13ePBa8kfxmukkC8KV3BdFETrfloqJQUy7BfBUlyQ23slQUzrdiffwcSUnms1PKZ3VqUgcHw+fnERsUuoum54zFppcKl451nfNeuICJsZLZdftB88CPdpmRg9hLmzxn+7Q9znZxIcgiNfuaU3HGxgOx3XdpJr15o5JbtIBpUfoHeOvLC0hQxNQa7Nb5LK3hBsWsD69+ytqJobH4K2MTMS6kpcyQVT0Fs7SLRiIaucLBiQdCKGS5wQ2NG+DQWVXm5RkSv4uB0DcTcaT81LjHC/0AMRjSJS0a7kWVZfAkcM8+8bOJrhiZjr4us+yiFWbxOb2m2MN3wpx3Rg6Pm4ev32Me+eU+M3K08inSqfeHE5Is5+OePWnK4lWS6A+Fy5Xm8nMqZShKLtACpnVZRrJR1JqDG7r9b1uRdyPVlcMjEzeMTsQ/t6YyA3B36nVL5F+cixD03EqfHIviJuQFYvNEaCKnkym3oEwl1MgykmUi4uKAdc6xetBWfPxgGSCZVyYOUFmPg3SXXLDM9D5xmWlbPr8XpHPgeR586Ki5/4c7zN57D5sYu4zwfOWZB6+VnSlcvBL2lVs9aR0unszvletJsJVVUXKLFjCtyykkjxe1pqBo+bIZMdu/srb+a/5r7x/Zc3A4/po1lRmydnFBBigIjVIs1gY8MDpJTelYUuw4kV00JQr65U5TMI8/aDdYZmoXkRP7WC7XFS5AYrApBkn5pEfLPZr2guk6dbHpfcoK03VCdy4O0gWl8djsueOQefDHu83R3SPB6xbc62WCmPiToPjs6wVJyC+Dc0RNxYGLWfdXzURhv6iKkk+0gGldnkPSJ2pNwdaX/9l6cmN+tr7pNzeUfrp99L+Gx/VUztmwojv5nPwAhUHODnR2sLJ+K9Yjk7ODuHNYXM50JSS1TPTSkQSTjXOOj8NGDBmhTxR0aGHjrtEdG7rN8meuMovP7zXFRfnYXYQnObRv1Nz/g53m4Z/tkbOMbEgUeW2iSevjjH3taSfDfhtPYR0S92aCOB6md+3L5l/OKgsrSp7QAqYF2TgY45KhvyVWzfk2SUNvq//HT1q778ho6Su0NtUV6gzp6ZB+OlsugPgDKZskx+/Cmau4x2QJJut0OcC6yIe4eH3MBqWzUyEybSvazeLHLTVLLlhqir3zeyXdEGx1OfDAEfPgtbvMoe3H/OsB7jWzJ3HLa0Qf6A7x4VVbgniyPHFymzTZODaEfdFcdvZRGIqSZ7SAaUGi2JxF3aPFqilYuX16a1/U8GuzHBqOvzA2Ee+0pjJNOnBXx2B44sGKxynnhU0xEt4dFPo5Jgp6Ua0jpYnldIfTkxxI+RL8ZAPJY2UEz4+Tsv7QxkQrtq6i6Tlriel96krTid1FHflZ1U2MlMzAL/aah36yxwztH5XXlHoNIGlF5HUxrIht3w7CK+K38RTkCH1V4rhswZfFoSj5RguYFsOeffQ0kl521JYfmMjcZvWGsuvYxC+OjMY/sKYyTfhCdtTLYCXDGtsYrMQptqg8mIokfn+KNXwk2PoiW2Bcrl2mnfjYmEBPTan53HKshI/lBH7OxdxZvxX2yYTjWjqO6zZLn7aST48udOZnFYcDcw8/cszcd/UOs+fOQ2ZiFO9O8hoYVuxrDZ1WZ7+oHvbZFI4FCen3x8I+scK45buk6p2nlaZAC5jWo4vkiSS1vgY6trp8eev6CGNMw3nOWauHj4yW/nO8FOuVeWfAGA2aPEiRcLHAXhnOoPsCgr2hYD4RONKxCkLNtCSYp6xYgVDjCxYIT9m4s12L3pjikjaz6LHYXbSM9Tyt3Upjsdl92yHz0HW7zdFdw/41uBa4V+MN2yW5BCv2lXu/jzLJOxJgHeicpCAH/R0h7fPm8nOS+xUoSo7RAqb1wL2PLiKp9VG295B8T9T54fBI6fpjY/G3SC1b/yqVOUpDUVK4UA/d22jtYJfyu4gTmigoYp22m4swpPDj2uXD4eIQwLp1OD+ynL/QI7uLlj1jlZxd1Fbrr/7cODI4bO7//k4z+Ku9ZmwouR0AcDqLdXqbxToJZ7MncaeWUdkfOn0TPA/vvIqkZneVV5R6owVM63EqyXpRa8pPqSSq+U0bZ8LOoxOHDw7HX5wo8S9FZRocGi5RAUNDGIRsL9S4wkYGRRuHL5RwnjCXgjURPyWPASiUFvjc5BxUqOBidL0XLjfdZy7O1XEuAMe67L3jkHn4x7vNkR1D/JTdUwfy+q1tG7ZdAiCdfVZ3OJ/MYSGV3x+rC+xkM5QQ6ztI3RdIanpXeUWpJ1rAtB5PJsFupFoyTnLl1vXRvG5a7n/M2vjuvWPfPDZW0gvbTZOdR+U4CyADfzBoorcGh2zEDYIsLgbDUmnXz0zIzuvmDx/L+d2zkUmcOMqrbWWHWfKE5WbJk5ebtuUdJirkaKsLPcehvaPm4et2m4Gf7zOjR8foNeGJ2zjBtsOGAo/YlON9nCN2OKv4RUKcz/m5T5rgPbaKMdeSXG0u0yvvKs2DFjAtRP9A7I5/qTX3kfxa1Pml//w1Rw6OxB8dK5lD1qVUAVtYHjloDxQNBQMjKc4OD9JNjonxw6XXEIPA4JxAOIacycTmZed189OffaxgCnIQL/S2mUXn9prei1aYzg1dJuKzrPLD+PCE2YP7GH1/pzn08DFTKuGVE/b5s+DFeN35rc/argUSt1iFfcFy0Mg7Br/1idPq6N2jBEgctw34GBUvetdppanQAqa1wPEvJ4laM7DOwxaPfWzlgL3HStcMjcXXWVOpwqHhmN4rGrQwSDkhvwj8ThI/YB2+lPAcFSaKVZ0nI2FutcnlOqFcBlfRPanHLL1wRe7OLnLgxovbr9tjdtyw34zhPkb2yaNzEraiAeujzvmczsJOvDuBj1vRXe90R+r9C4LJsr3zB8ZEP7G6ojQNWsC0Fihean31XZz1cw2t6obEnH8uPmPlnocOjv/TeIl3bSlVePDAhDkw7E5ktoMWNW7Ycj60vphJ+ROdxSrJAAhJptBbSdKT9QYp4XIB9+0RX8dl+dNXmiWPXyYXo8vXRhfe6rLrpgPmvm8PmkOPHOOL1MlrsK+TGv+arM4260mOI/wcXJPoFtJhJn4JJssXG4htJXGzg/6Gqfknc9nZOAZGUZoKLWBaixNIlohaM3An6F9f2ReFq75554btwz8/PFr6lqyDlSzYJXPP3gkzPCbvkAyUMqzxIOcEdijkTKRC3Ak1Wam2ewhSNWaXhx0tToeYQmTaV3eY3guWmSWPW8Y3YMxb4YLruhzbNWIeuXa32X3LAS5k/POnlnUxmGxhAsvprkOOh3N82Ot+PkCKs8NZxS8SNIz4eR687V8l2Qa/ojQbWsC0FjgDqUfUmjFAK7o7rZ4b/vJpGyYODcdXjE3EA9alBIyMx+aWnRNmjIYoHrBk1LIDl5usz4o1A6GJAk7EU15sQBxZvxNHpZg7zFgG+JjvEI17Fi27eKXpPA43XcxZ5UKgWNn56/3mwe/vMEcGh0wJ19shv7yPoS6vUV5bQlYXO2nLfNR5WxTunDjYLnus9PNhRH+Q5H3m8nPsgTqK0lxoAdNaPIqk1p/pTfRjOJenLT9wYOznh0bi/6Z1cbhqVog9x0pm285xGbhCsYp04SQxN1BWFGq4kCHhQTIQbGFJbWXJzJfEy+dFEp9ZtKzdLHnMUrPsqStM9ymLcneALihRRXjw/qPmoe/vMntvO8SnStPT968TWqJbv/WBJJbOY5t09okpPrTWDyrlcGv9rgXQkuUL7OOJ7yr/WZKb4FeUZkQLmBbh+Q/zmupENmoHfpnduGV9/gYS8KLz1oweGC79x/B43NCbSzYDNw9O4GBnGsAwMMooJoOXFWq8sC+YwpgTyqm05SURmTCcs9BMXmxMpvJ5o86CWXTWYjlA9/TFfB+jvO0uAqOHx82OX+4zgz/da47tHubX5l8HGtIS3frRhjbrFfKo4d46kOF0B3+WVodSnkM2+y02iC7xe+UOks+by84ZY0tRmhAtYFqEziJf++U4sWoGVm653j9+3/7xe/YNlS6fiPNzkPF8c2gkNt+9Z9TQeyKDFwSDnx3FnA9ITBQ3yNkhz7YiTuEciPPPEsxbWFQ0i8/qNSufvYb7Nlz+P4eFC7ay7L75gLn/O4Nm/92HzfhocqwLC78RSaEglm3lT2zbsM26jZFhTSa0OM5S7nMkOQnyGdm5goD4eYvqe0iwC0lRmhYtYFoEWil1UofTqGvJfpLdouaT33nsmontB8f/5+ho6Xoyg1X1wuXmwXE+gBfvhh2wAqEJAyZJuAXBb12hJhHO5im9FYUmxCjH7RqartCfiXqKZtEZi82Kp66kwmWxKZKdR3CQ7pHtQ+aRH+2mAuagPzUarwGCBjYU9rFuY/Ah7mzWy/PEI5TFvE6K/LG4hm3r59bqThyJj71ocFPUq8xleuyL0txoAdMiRLHppq7Wd6BG8ZL7C8b95lmrD+wfKr1rdCLeZV0LFgxoX71t2BzkYzOCQQ4CPSsUQAw4H0jiiRH6RPeP4PtQz/qKPQXTc9ois/Jpq0zvY5aatqXttAbK4SYXesq4psuOX+wzD1+72xwZwEG6Mta7V4SGe2rZJ0bis3G2Az39XktAdBI04g3ySJE/FtGTHPZV0GGhc8vhqPw9QsZ7qHjB2YWK0tRoAdMqRGY5tbX+PLEFpinuO/TQwfHr9g+XPu7X1wsQvPZfbB8zv9xutxTwgAWvDHneB5fFR8npxftFyrbOhLoVOLM691SfFBe3mcVnLjErULicT4VLTncV4fmOD02YPdsOmIe/v4t3F+GgXbwnNszCr8ta3LLTxuDjuLW9Ln7rktbHSNhZvjy3LIZ1yUmcyEmMcDkO6FbwUf47yS9JFKXp0QKmRaCBYrFVawmKl6a4vPgLzl0zct++8Q8eG4vvsq4Fx4Gh2Hzp5hEzTsOUH7SocYOgDH4yuPHunFQsEd61VCbleU58gZMR3FyRC5enrDS95/aa9t72fN2zKISe8JHtx8z2H+/mi9KNHJb7F0FsmAUNeaGJT1TRMXFcBE3oty5us3nsQ8u6i1mDEDvB2S4nsROSx7CKnHH0ST1wV2kVtIBpFeK6FDA4MHZeb+A4E5579uo9+4Ym3jA6Ee+0rgUDCpKttw+bnz0ySgOXjFbS2kGMG6unWuuHQLe4mPMhOylmMsmEz6f6BKdDLz1/qVn7W2vN0vOWmvbl+S1c8FKG9oyYh3+4i2S3OTI4bGIUgPw6g9dlFX4fQp/X0/loRBe/dXHr8hjWMVFvndJxQPwQdiZ5bKK1Otu2Ydv6uZU/3En+76h40SvuKi2DFjCtQz2OhMSl+vEDu2l48MDEDw+NxJ+jFTiuc7EgwECFa75svS3Y+kJvACR1qi/7A8lO5EttmeGcyltYsqdKY03SvqLdLKPCZdVTV5olj1piit35PDiXoafMN168+YDZ/qPd5jDfeFFeHb93kiJCjY1wjybxQbd+6BCO2ckGpBPbulLLcE7pkjwWdmJpThey8/PjWb/D5uD/+FPGRHr/MKWl0AJGmYycbu+vzvPPWT2052jpfUfG4utl3d367D5aMh/52TGz4wiO15AX7QTIAGsHN3GJTk06P5yszyqpXDQWXGyue32XWX7BcrPm6au5cGlbnNNjXCw4uwgFy/ZrdpvdvLvIXvCPXph7jYB7toP3xMY5Bh/mYd362UhyxZI2tWyrc6bXhSSWNGyz7mLWsJTb3ofmapKPmsvObpqtqYoyHbSAaR3qsV+7ndZ+NBo1F3uGJnbsPjrxtoVwmwFc8+WTvxgyNw7aYzbgpCYcBFnYR3Gb4wRITARO6WRKNGvZeKG7aHpO6DGrL15lVj1lpVl88iJT6Mj36iQuxWZ476gZuH6vGfjJHnN0J+5jaGP84uW1cY/XCeEp8KFnnfyhbePQEl387CPFuoL5XDSMJY8HBRbHrZN1tPIngibQxS8K/T1A5j+YUrwHOYrSSmgB0zocs30t6aEf0h1Wbxqef87q+BcDYz/aP1T66ESptXclfeGmIfOtu8MDd4MJA5gMYozE4UNMpGwXE8cTSR/sG1OREpklpy8ya5660qx60gre+sKFS8631aF42XvrQb6my8H7jpjxUewEw+uy7wV0J/xagfjRJD7oLmp9iFmFfazbGHyIsy4x6HbJmZjzJn4W65ROAuyHsDP9uByRP2xxeb8xxV+YK871UUVpFbSAaR3qcXDeSpJa3926Ibz6wrWlRw6N//vBkdKnraulODYWm8/eMGQ+9ashM4Q7ThM86MnAxYKWdeeH2JgTkAziNj8Qpi0ynas7zcrHLzfHv6jPrHrCCtO5qtNE5M87fO+ie4+Y+74+aHb9+oAZOTQmr82/5uD1UsPiJ2eLAMzDvRU0bincslNivAyOC8myxJOOOW/oTxKyMbZtwzbrScyaHyb5tLns0dZUlNZCC5jW4QBJrXcjrSKp9cXxGsavd4we3n5o4l002N9OZsusxFG8/PdNQ+YzN8iBp+FADHiQc5KaEAxjGYGPGh6kqTYpdhVM94Zus/Ypq8zap64ySx+1xBQ6m2OVgeNchnaPmIHr95jBX+wzwwdG7WuU1+deM8DLhSHvkY3BtgkSpimYL5wHVMq3fyJeF8XZwC1XdOcPHottxJI8KLA4bp2sYxL3DSRXmKhwFDFFaUUi/FMo+SaKpv6l2z8QY0vJvSSr2VEbcBr1i7f2Rd8Tszm5+aF9v9W3pPjxjmJ0vHU1LQeGS+bjPx8yW24bNsM0SLtvhu9Zicr26LivUOIXzaZ7kNfR224WH9/D0pnjU6CrgZsu7r3toDn04DE+08iRKgAI1qkRXxILCwL2Bzar1PhYYIuPejuD91GDzES3fvTBc8JsoosvsaGX57HH6xxxMawHXmUuO+cadiuzQsfG/KNbYFqFiIuNWl//BDeIfIKozcvOI6Xv7T5Wetd4yTT1r9Hbdo2bv7/6sPmfbUNmaFxGKreKRc8Cnx3snADxW4HtWxn0il1Fs6iv26x/6mpz3LPWmJXnLTVdKzuaqngZO4qr6B40D1290+y76zAXL/xekLhjfQC/B078lPg4h23yc04iaLinln3W9j7MY20WauDhOOsiwOWK7vx2fm9DD/K8iMfZ7CGF/rAr+R0kesq00vLoFpgmYDpbYED/QPwN6p4vVs34DpW5L9i6Lmrqg2Gvu2fvor4lhX9Z0VV8Nb2dTXVm1Ri989c8MGI+cP1R89ABuRMykG9FsrUl/JqE35jw+5P2G9O+qM30nriIt7Z0regwhSY4riULdhcdeviY2Xf7ITO0d9SUSvaIZsSkY9yqTrqkKIAC3duIWcP5bHEALeXjnkUSfAzChuSXLy+9HNGTXB/DZA3uOFYhT5aHXcjvI3mHuewcvTv7HNGxMf9oAdMEzKCAuYy6N5PUchTaQfJb7W3mxi+vab7BLeRzPx1c/PRTuv9zaWehn97S3G99HC/FfIG6/7jhmLn2gVE+08h9AtxbQ7pgtxEpTvc+AD+98A4qWnpWd5qlpyw2PWs7qWhpzg2xpdESnwq9++YDZmjfKJ9p5AjXaqkCgFofI8XpvrfJKT81bq7Etjr6YJ7Ex634rFM68pFiXYGe5PoYJmtwx7Ekz7pIZx9+YHzBlMyrzRXnjHBQmRM6NuYfLWCagBkUMH9MHc48wJ2pawVOxXwHPYN/2dIX4YqeTc0ND+w7e93iwkcXdxQutq7cMToRmwf2T5iv3zVsvnHnMHaB+QHLfRfCb4T7eoQRbqlBj3ixo2A6l3WYXhzbsr7bdPS2NW/hMo7ruYyYvXccMkd3DPvjXMI1GevWIZ0M/AwpTk96cZb5WUnmdZ9DYouGljVqXDb7RPUe2NYV6DJHKobJGtxxLMmzLtLFR3yX5C/NZefcLaYyV3RszD9awDQBMyhgLqLuyyTr2VE7cBO4F2zti7aL2bz8x093RI9e1X7OKSvavtbdFp1o3blghAbmXw2Mme/fP2K+fdeI2Tck1yoB7hvAPTVue0vWH3R8/Er3ik4qWLrM0uMXma7l7abQ3tyHvR3bPWL233PYHHrgqJkYxU0OZCB3sG4d0vkBnh1O9z7ErZGKUSO2nd/a4rNe6xNbGvi9zyrownx2Wx0t+7wtntRz4liSZ13iE/tOkheRcbe5/Fx2KHNHx8b8owVMEzCDAgaFy1aSJ7KjduAn7mZaX75v64bmPhYGfPGXg9F567pesKan8IHOtugU624o+LcbmYjNfipSHjk0YX61fcx8774R88D+cXN0DAedBoUINPnzsM4+8bpYEddsWdpuelZ3mWUnLTLdyzt460uznUkUwlfQ3TdqDtx3xBy4nwqXERyca2PSseJ1q1WKhTnZZXBPjdhSMLBmFe9P2RL3Me7Fxz2LJIguDffUss/b4kktn2OSJ7oTn3cbyetNIf6+ebcWL7VEx8b8owVMEzDdAmbTQNxGn+YnSX2leGrKHSQv29oXYWtM0/O+awaKzz656/eWdRc+Ru9ulYv1Zd73Kh/DVJ8O/sVwFgxOe951RAqWe/dNmLv2jvFBufftG5ezijLFSHbXEPfUuDiAjry27qJZumGR6d3QbRav6zLt3fm+H9F0GT0ybvbdeYgLl7Gjcs8ixirSea/XwtVaoJJOlvx5WPc+WyxAC5KgZufl3tpuLjePtdi2LunZttk2xjr3ki+6ND4XJtvis3/7yPwTWot/zbznXNkcpdQMHRvzjxYwTcB0CxjQPxD/DnX/H0k9bgWM68FspCKmHrctaDjP/eQ9hXv2jW86OFL6cGyitfBxQQDF9fTeex81EqviE8Xa1HNMLOwewrEt+G+rmg+xztDnDBdBX2wvmM4lbWbx2i6z9Lges2RdN29paQWwxQVXzN1352Fz4IGjybVcglWVqGErZFdnznSDvuhB793pQsGR+FyWgF5c5fNxDK38MexjQ/LDXO7J4XXbwJPExR8sdxeZf0GV8RZzhRYv9UDHxvyjBUwTMMMCBrtEcAGr49hRWzCS/AN9Yz5wZV/UElf4jDbf0k7tq6kq+EcqDVbhnS4vRFwZYn3UwJPEbY/J6yKgrCghxevQUrbtWUk/BgqUjp4200vFCoqWnuUdfBp0oeiymhsULrgI3T4c4/LQMS5i7GBtES21xkrFs3oSLMvxoaRISHxBb9ePKT81bi7vZ5/Tk1gYh8U+60xiyXOwafRnfaw7EYP+cGPGd5D2CXPZufW4iatC6NiYf7SAaQJmWMDgDKRPkPw+ST1GtkMk76Qlf2Dr+uY/KwlEm7d1UveH9Jo+SCVDF94095a7NzBbnKBhH3tID2LslT+GfTbB+6zivNxT4+O2KbYVzOJVXWYJtrT0dZtFKztNW1c9Nq7NL8P7R83+e+UYF9lVhPUS3gVZP6XWUtYIfWmdrEyOj/tQ0Hpf2IvT2YB19okXbaVihHsraJyHfWIkPh+3PdvlueyRP5wi/ZekfZ6KFz1duo7o2Jh/tIBpAmZUwAzGEa3lsBvpMySL2Fl7cN+ly0k+vLUvOsyeZuYtt9A/QtRO79uf05j5NionVvtCghSvY7JGErfFB+u2Z6FW/hj2sRHk+8bFIy5YOnqKpmd5Jxcsyzf0mPaeNlNsp/ma+EDcSuB06KH9I/7g3PERnC6eWR/JoF1G1hfOF8a8ToroUhww3hf2iTMV8247v7cDv3WgY5Ua92jsE9V7YFuX9GzLHOllcQB/u8l8F2kfoYQxc/l5nKPUBx0b848WME3ATAoY0D8QL6fuJyRnsqM+YBfSB0iuoCKmHnfCbjjRpdu6aJTA7qTLqVzga+lIYSE9QPkRFirckyPRbW9b7qlBb0PWTubBLqDu3nazrK/HLF3fbRat6DTdS5vvHkTTBaucoX0jZu9dh/kKumPHxv2AXYlKoWoFC2DbOqULW+qdQngfNGskPmnElsKCNat4G5MzCKhiV57HPVYYE13yq+Tiyro4E/AT5vJzhjlBqSs6NuYfLWCagJkWMICKmL+l7gqSeu5vwMGDKJT+huRGKmSafpdStHkbbjPwcqou/oXe9bVSauAz4LDoaOWPBbjPKLEDHVpgt7UXuGBZvLLL9K7pMsuP6zFdS9pb5liWakyMlMzR3cNm9+2HzJEdQ7wFphKVvG4gD8nmsW2d0oUt9U4hvA+aNRKf7VkRK/R5HVrKlkZsKUZY8z7rtTb7vM6Wf47OZ20csPtGki+ay85pid22zYCOjflHC5gmYJYFzKOpw0XtzmZHfcHVP3H69n+S7KZCpqm/VNElt3TQm45jYv6R3vkNKD3wCYRFDPtIsa4gLrmikRTkOJb2zqJZvLyTdwktWYUtLB28q6hYpAQ3QytC34TxkQlzeMew2Xv3Yb4QHezq+EE7RaUvFPtsIIm7UiAhXJ5TOcsaic81Ns69NNad9HahoV9cyeO7x5VOXpeP2QbZ3hfGybA6Lh6JA3Y/Zy47F1fFVhqEjo35RwuYJmA2BczGwbiNygj8anuPeOoOfhn+iuRD9I36+pV9EY6TaVoKl2xriyPzTFI/Q29/H6oMX5iQInrlIqZARUlnT5tZuqbLLFnZaXrXdHPR0tFdnNVn2ayMDU3wGUX7Hzxqju0ZSUZnRgxurR8d3p1UGlHRH8yTbi1kwE75iHB95zTvIcWVDT5mFW9DC3yseleVYgRayiZhw+bbGOvoKWj1QZI/pi/N1eY9Z+uWlwajY2P+0QKmCZjVFpj7YxN1mNU0CP+YzDPE2xBwbAyuDvpxkmvpqT9IMvrVdU04cF96a0T/IM8g7XIaQR+PcsW9CijQ3daV7iXtpgfHsaztZoHd1lHgOCcuEErjJTN0YMzsv/+IOUCFCy5Eh9OjZ7KWSeUGRqKKls1L2YSzXQEheoLXOSyW87nVos9BBuc5y8I+sbhl2+ro7YLSPm7FZ51JzD9b/BjYbOLo++bys11YaSA6NuYfLWCagLn8au8fiP+auneT9LCjcWBzN67e+38k/0ty09a+qPlu8f/mO6KoMP440j5EhciTUMR09bSZxcs6uFDpXdlpFi3v5OKlo6vYsgfeTgWKFOwm2nffEXNw+9QH5noq5CSuSpqFHFlfaPsygPU0bPtw2FLvFAJqpeVwz27xJLaAPjsfq+wSJ/tE9R7Y8md+QfI6U4x/Zd51rs1SGo2OjflHC5gmYI4FDE6lvozkdSTzNbriYlsPkHyDBAf93gr7wHpz7IdzeG315CUDcaFkTC+pG0iOO7R35GmH9w7/5eLlnUt6lnaYdtwUcWHWKgm06hg+PGYOPnzU7L3vKB+ga0fjaZFOLZ+xzEOOrC+7jGwB4vA6KaKHLfU+IfRlcmzjvN5vlZSfGh+3DSLeZxXp5HnTH67rgmL/jWTtMJc1772N+h+h11QwvfQvsprM/fTjBbc9aCp0bMw/WsA0AXM9boKKmJOowwG2F5PM57CLs5ZwGwLs20dBs43kehLsctpLgtNDR+LIjNLavERPNMaz3bp+7k9503ZaobrDWLDUyLST5gQXsusg6SM5meR0kkeRnECCG2TitHTcLwlnKM3n+zf/0OpiYrxkhg+OUdFyxBx45KgZPTRmShPTX49MmUkJlXLKfbYgCAJhjtdJET1sCe8XoPMSrdPFfM+KfUxASpjj5g19iZ08V/Tis175w//Fv5N8gL6oO8zljTj2vj68ZDCOSrF5PKn/RII7vuP6NW8j+QkVMk1zM1gdG/OPFjBNwFwLmNfQZ7xr0DyG1C+RYGDOGzhAcYDkfhKcdfEwyU4SrPj20jf0IL0DOCgYK3kcY4N8FEP48rovMN4kCG4IhKKki2QRBReRcynpKECWkawkQUGyhgS/DtGjSMG9kBq9m62pGBsap4LlmNn/4DFz4OGjJnZFC73B0PDmh1T12dlAoDJunqwfSIyG/CnmD52ihq3gluF83FtnygdIcWWLj1klsTNx22C+JMf2tk1yzCOkvcdMRB81/9L8x7vQDyb8P+EMyIvYIdxC0k8FzH1i5h8dG/OPFjBNwFwLGLCRfhXRwPFbpOJX3qnszC/4UqJIgWD3E361QUfvBMfYoEcuBIULrnmDLSnYUgLb+WCjd7puSZkO9K5OjJXM0X0jZv/Dx8y+B46Y0aPjZddvmc0bmV5CJZIBPiQ7X8omI7FF83YQS3IAPY51hH7WqRFftSLERuTPA72soAlygnnwncbxLpeQXN8q13ihAuY3qEMBgx8HDvyvPpcKmKvFzD86NuYfLWCagFoUMGDTYNxOH/cmUj9LwleaVZRK4LL++x48YvY9dNQc3jFkxnBH6EqrCvvVnM43tGz2SVY91ULeHySIGrYJ4eotUScpWtB7Z/XChWOBL50nVuhLdB9DsfJVkr+nd+9uc1nrnGlEBcxzqcMd8bHFMwR3sr/K6rlHx8b8owVME1CrAga88OHYtBXNK0nFvYzCX0jKAgcXmDs4OMRbW/ZS8TI+hB/N5dTu2yhMtQby8SBR1LC1kBHaqRhZbFfJSVaF0y9cfE+N2NXmTc2H3aNvIcGVdZvvzLwpoALmxdT9N8lidiT8Pypgvmj13KNjY/7BJnZlAfH143n4wa+jt5I09cXmlLmB9fPEqOwievBXe82t3x4wd/1whxm846AZPTZhShRHjhfMQ4KDj7LiYlPJpPNS4wSP7QQDCYudSl5Lz8MSLo8ErZvfv54g7udDg1yeAr/NA7KcxMcCm33V5rWT2GMkPyT3H9JPx8+2YvFiwdl72E2bZYXtFaUmaAGzAKFfQTjbB2cl4X5JOFBWWUDgmi3HDoya7dv2m9uvHjQ3XvkwFzAHdw6ZMSpoeLTFcOsGX2dRI4LGp7BwcZB2lftgpxwi5YVBopVb0rhlsS2uJE4tT5nlAq/Dj7ifbIz9Vkce9zRxbuLnGDXO621WWGUv2/Abg9OI30vyMipc/s+851zUbq3KOpJKBQwuSaAoNUMLmAUKDS44OPa/SF5PgnsZKS0MH4y7f9QM3nnQ3Pp/A+amrz9i7vvpHrP3oaNmnIoWP3CTlG+pSE8gtDGxh2YKpczn8sqmrBe2iH8uoQTxRGjCY7CQDcnmwMfC2d4PsvOA1PKczzbZZYTzst866A+HPF9D7j8keTt5sPuo1cFlGyrdRDbvJw8oTYYeA9ME1PIYmCz9AzF+KeH6MJ8jOQ4+pXXAwbf7B46Z3fcfMYd3D5vhQ2O8BcZDXy35dqW/Y9P5xvmc6SSH2IefzpqnPEc83AbBbJ63SRE9yXBauOoLo84fhEWnRkqWJJbN5bj8gUMk2NJ5Ob1JA610oO5k0Drle9Q9S6wUv56IzRO/tqE57lqvY2P+0QKmCahnAeOglQ7uXv0vJDjVWrfMNSkoTrCl5dCeYbPnwSNm/yPHeAsLyH6Lyr5V5Eh85d+5ck9tqb4msmVDJiGb722rSBe2Qi0KF5DOT82PK+ridOF30rv2CypcWnl3UYr+7fES+qJgiy6uq5QF13p6xta+6C4x842OjflHC5gmoBEFDKAiBleexcG9LyfBhd+UnIP/34mx2IwcG+ctLfseOWoO7R42I7heC/3cTX9z3KWICatU+2ZV/cYFgUStml2FZJ3jtSqroWprp+x8SZ5oqfnICO0wl3XrcH4fJ2VahYs16A+nbd1D8lGSL1A1ucdcfp7Nbn1evDs2hTG+Au9PSSodA3OE5BUkW6iIYUee0bEx/2gB0wQ0qoABVMTgCrZ/QvJGElxWX8kh2KpydP+I2fvIMXNgxzFzcNewGRua4MHUfVuyX5vst8iXM1PkOar5a0W1NZH3uxdnHdKl5wqt7KotMVNbSzyse78oqbiPuZ60xLeLOtzH6N9MHN2/EO8g3T8YF+iNwIkB2JJbCWyJ+jeSt1IBg2Pwco2OjflHC5gmoJEFDKAiBpfixy6lfyV5Kole9G6emRiPzfDRMT7lee/AMd7aMnRoTA7Adce00Nck2MZSVnBMVdCk5ybKEyq5akbFNZF1JrFKmlC9YIFurXTHsE6N+MJWSBcuyRYX2+Hsou+QfJDkxhY+NXpKaL2B06Q/T/J8dlTm5yQvpAIm92c/6tiYf7SAaQIaXcA4aIWE/divInkTSfaqmkq9oX/NY4fHzO6Hjpj92Mqyc9gMHRlLXco//GZkiw+xE28qTrCddRLlrurLSDFpkJhkVZMOlSdWmnWyggUW24EzjDs9WYYvcZhw2aImywtCPyD5CMm3TSk6Yq5o3hsw1gJaXzyBui0kk50ujfuZ4ZYCPxYzv+jYmH+0gGkC5quAARu3x3j400j9B5IXkmghUx/i0kRcOnpgtHgYu4a2HzN7HjlqjuzD8aD4DnDHhOUE69aR/ZZ4mxTR0xnZfDDZV22SUM2otjaqtJoqd02vaIEietgKkxUutsPNRHFa9KfoE7vSXH7egjlAdzL6B2PcZ/PdpG4Wz6R8guT1VMTgfma5RcfG/KMFTBMwnwWMg35doXDBTdpwW3z81NQ7N88NHPCJX6O4GvIdJD8fvPfQ4B0/3/2SYwdHHzc+WlpKHzt98PLZh9+A6RQzIJwHpGwyxM5mVfIkcGyyhNlAq6Cp1kKV4lxaZALZPG/71LAVyosWkNriAvUgyQ0kGHy/b0rxHnPFuUn6AofWD7gDNc68wq7nqbiT5KVUwOAO1blFx8b8owVME5CHAsZBK6pV1OGGkK8meSxJpbMNlMrg1/pDJLeRYDDEnYi30fD40FZ3bYzN23D/GFyX5zX0qT+d+mUoGOQbkDlGhahczNhM68jO4/D+srz0HNXmrxdV10i0rqLf+amESrneR0oSFy3Mr1S42LLFO6hD4YJdRZ8iudZcds5h+JUEWifgsguvI8HBu53wTQG+65cXi+ZtX1nb6G/X9NGxMf9oAdME5KmAAbTCwlU2V5O8gOQPSLDvexGJkoBiZQ8Jzk65lwQHL/6MBKfZ7ic5Rv9641duqPDZbt4GJ05jP5PklWQ8h/oTqJJol+ywTZh0ywyoGE8o81lH4q80Vy2RdZFfI2VWTZXWVCmfNaQL24RKRQs01q2DOgywD5Lggmy4c/ttVDkdXohnFk0HWh8cT93XSc5jx/TAFYkv2NoXPSJm/tCxMf9oAdME5K2AcdCKC09sOQlun/8yEgy0OA17IYJ/JNxj6n6S60l+RUIDn3mAxv3BKDZjWzZQOxMuuc2YwkQbDZ5nkfVMkj8nOZXe9CJqCflWhG1C9iuTNjPzBMHMbGVMFZ8tU70xZXFyJL5KmlC5YAFlRQvAbj0Um58k+S69ibeZaGLcvHsm4/LCYhOtA+i9w0H+7yGZ6QUwL6M3/h+2bsjnKdU6NuYfLWCagLwWMCH2GhC41wkKGQy2jyPBVoT8P/mZg2NXsBXlYRJsUbmd5Cf0Md26ep3Z/Yl6fV6Xbuuk9/gi0n6PHuEZ1J9I0oF3WB4xbBMmL2ZA5a00jgquulJxjWSdSaySJmRXaWmTCpfAQSoOJMXWlmtJvkCO68zl58iR08qU0I+Yp1GHU6exFWam7CV55da+CFtvcoeOjflHC5gmoBkKGAf9IivSNwq7lx5DgmM4MNCisEExM53943kA/xT4NY5fhtiqgmt7DJLgYNttJLeSoHjZTYn748gMXbV+hltXZsvmm6kp4Lo8p5A8kQQF43n0DcE1OMqKGVDp21PpK1Upr3xplsrJM6fCuyau8kDFN5icWX/arrilBUULrt+Cz/L/I8GVY+8zpcKQuQIbu5SpeNGO2BRLBsdrfZkEW15ne/sRnNH1cvo+Dm5ZX6svVW3QsTH/aAHTBDRTAROycXuMgRLHxuCsJWyRebLVH0WSl1sV4FgVnAmELSrYL7+DBPds2U6C/fMPWH33RGSOfq1Rhcp02bwNRSHeTxSLz6ZvypOoRwHJJF8dUSp9k3wOXlmQUCk3IYlCQ5ngtuO4xVTzlS85eUuTvHKwqsJzrbTKCl2iUxs4rYrjkXAs0tX0IDhj5i7zHt3aMhvoh0onvad/Tepsdh2F4EcCrqXzlq19EbZs5gYdG/OPFjBNQLMWMI6NgzSQyW15MNjiVxu2FmDQPYcEBxjgwldLSRDD1gWcot1BgjOcMJ97A9yXFSs9/IrGlhEIBiEUIk6w9cRtQYHg2h24MzCKFGy2xq9vFCq4GiiKFsTdsrBcCOaPaaWa/3+QS7fhnaFBJKL3j88Sw2b9Z5Ngy0wf9XhvC+5dDHYYeco9wky/etXSZ/omTrZaKg+lt7JYcH1inDGEIhSn66Jg+T4JDqw+Qrklczm+fspM6d8e4yv0/0h9Pwm+b3MF/3+4BcFn6f8N/3u5QMfG/KMFTBPQ7AXMZLyUvn+jO0wXlQkryURh00uCrTMoYnBAMAS3NgBul47brYOiBIMUVoAoOKR4iSkvkiKHVrXDV66PEFtYbN6GM8WOI8EWL+xqehYJ9o8so29T+hczOZJvWOXvWqO+gdXXRhLx8SAxo+K0ZxyT9F2SX9Iz30ZP/mHznrMX3negDmzaEUdxibfyfYGklvdKQ6H553k6HkbHxvyjBUwT0MoFjNIg3nwHlS0TVCDG55PlduWdRd8sXIAMZ5Jhi5dgv27Jt25637+psqa/ppFMn19hRnKhQMWWNBybhAuj4XiW6+lZ3ETBvXrKc+3ZOBBjTYR7o32GBMe11Rrsyv1tkmuokJn3glPHxvyjBUwToAWMUlMu2YbdSdhVh2Nl1pCcRIJdebjuzBkk2C2ALV+d9M1zu/LKmevXcpJVjw3heizhVjfs/rmLxBUs95HspOQ9plA6Zt6jl/WvF/ZWATi78HKSx7OzPuBA+TfTY33LX9xxntCxMf9oAdMEaAGjNITNtxZord1DhQl2551AgtO0sYUGu6JwY08IipsV9I1EDoqbOX057doHxzBhawqOT0KRguOSIDh4GgdU4zRnXMF4L/0zUKFythYqDaR/IEYBi2OqcH2cyW7UWCuwVe1Ski/O5zExOjbmHy1gmgAtYJR54dJt+NUNcDwNihUIjkfCgIYeZ5jhuCUcJAwdxy5hy02lrTb4NY3BCMUKjls6QoLjVVC44Bgmt7WFj12yPfnou3+Z7g6aD14ygCOd+fN9LckbSPzZbQ0Ax7d9CEJFDAqahqNjY/7RAqYJ0AJGUZRGguKFRobTSN5O5u+QzMcVtlHs4j5UKJ7upkKmoVvedGzMP1rANAFawCiK0gh+e2dsJib4uKhXkeDWFbO5wm6tweUOPk7ySVoTPrylQZc20LEx/2gB0wRoAaMoSj3p3x7jwO5lpD6P5E9IcMuK+djqUg1sjbmJ5GMk36ISZteWDfXdIqNjY/7RAqYJ0AJGUZR6sHEgLtDaBddz+S2Sl5NcQIJjmPIKjpXCdX7+k+SbNHrdNdFmJr6+pvbrSB0b848WME2AFjCKosyVTdtjE0d8NWxcLBJXaMap8zi7CBc5xFllzXKvMoCDvHHGGm4NcRUJrrb8oIn54N+RrTO983sFdGzMP1rANAFawCiKMl36t8dtJuIzw9wZYShYcCo8trTgAoa41g8uRIcixl3lupnBRe9wnytcH+huEmyhwV3icRo+bh+Cs9pGaTV6YMv6CIXPtNCxMf9oAdMEaAGjKMpU9A/GBRObp5D6bhIUKu60d/QLdSWCY2fcKfq4SN67x8bM175x4tRvh46N+WcudxFVFEVR8kLMB+Hi7tC43D+u34Kbo2K30EL+BYTXj2sU4b3BPZze297Ot85QWgAtYBRFUVoDXCUZW2B0k21l8L6cRoKtU0oLoAWMoihKa4ArGu8QVanCMRJ9j1oELWAURVFaA5yV8xGSIbaULDge5vORMQ+IqTQ7ehBvE6AH8SqKMh02DcQFWqPjbtGPI8G9qXpIcIr0OhLcywg36cQNGfN0kbpagbONsHXlYRKclYQr+EKwZeqYicyvTWx+Ot0bROrYmH+0gGkCtIBRFGW6vPiR2BQKWLdj3cHHfWAV0k42DurFcTK4w/gTSHANmLOsL88Xr6sGziw6QIJTp68hwX2TBull741ic5BeOQoVvlov+XBzp/jKDdNfl+rYmH+0gGkCtIBRFKXW9A/EuGP4KSQvInk+yYUk3SR5B6dF/5LkmyTfokLlpq0zuL7LdNGxMf9oAdMEaAGjKEq9oEIGx0K604z/lORpJNjtlDcOk1xH8nmS75Ic2NoXoZipCzo25h8tYJoALWAURWkEmwbipTQi/Aap7yA5nyQvJ3rcRvKvJF9rbzN7vlyHex9l0bEx/2gB0wRoAaMoSiPpH4hxvMwfk/wdCQ78na+V0D6S95J8fGtfhLOsGoaOjflHC5gmQAsYRVEajT1G5skkuDUBjo+B3Shwf6Nfk7yrYMzXv1rHXUXV0LEx/2gB0wRoAaMoynxBhQxuBPkWkteQFOGrMyhWvkby5rhg7rly3fys/3RszD96ITtFURSlKoWCeYS6N5NcQYLTlusJrpT7CZI/I7l3vooXpTnQLTBNgG6BURRlvtk4EC+mNdHfkPoPJPXanfR+kn/e2hftFXP+0LEx/2gB0wRoAaMoSh7oH4hxwTtXxOAqv7UCl/n/THub+Ysvr4lyMSjp2Jh/dBeSoiiKMi3sZfg/TIJrsdTq4nG4Wu4Wkn/MS/GiNAe6BaYJ0C0wiqLkif6BuI+6j5O8kB2zBwPQz0leTsXR/ezJCTo25h/dAqMoiqLMlEGSN5HgxolzYYDkUpIH2VKUGaAFjKIoijIjtvZF2D5xB6n/RoK7Pc8GXOvlU1FkrqXl8U0XFWUmaAGjKIqizJgr+3jX9qdJroIyC/6P5MNb1kcoZBRlxmgBoyiKosyKrX3REepwUC8u+T8TxmJj3h/HpqG3B1BaCy1gFEVRlLnwK5L/IZnJbqDvmth878oNetaRMnu0gFEURVFmTVQww9T9B8l0t6Yg72NUvOiuI2VOaAGjKIqizJotuNx/zDdevE48UzKTXEWpihYwiqIoypzYuoHvFv0ZEhwTMxnY6vJfW/ui/WIqyuzRAkZRFEWpBTeT4NTqydhO8mNRFWVuaAGjKIqi1AJc3G6yXUM4YBfFyw62FGWOaAGjKIqizBkaTHCfJFzbpdqZRYj/KCqYITEVZW5oAaMoiqLMma/iwnaRuZHUasfBwH/jlnV66rRSG7SAURRFUWpCSe5tdI9YZeylEuc2qyvKnNECRlEURakJV63nrSvVipSHCrE5bHVFmTNawCiKoii15G6SShepu/MreuVdpYZoAaMoiqLUEpwqXamAedD2ilITtIBRFEVRagkuUocL22XZbXtFqQlawCiKoii15BjJmKgpDtpeUWqCFjCKoihKLUHxkt0Cg2NfcNNHRakZWsAoiqIotQRX2s3e62gvyS5RFaU2aAGjKIqi1I7I3EntR0h2koyQ7CP5kImnvE+SosyIKI71rLa8E0WR1RRFUfJP/2DcRQXLRaSeRrKd1mBXb+mLmuoWAjo25h8tYJoALWAURVEai46N+Ud3ISmKoiiK0nRoAaMoiqIoStOhBYyiKIqiKE2HFjCKoiiKojQdWsAoiqIoitJ0aAGjKIqiKErToQWMoiiKoihNhxYwiqIoiqI0HVrAKIqiKIrSZBjz/wPdOpmaWmIrOgAAAABJRU5ErkJggg==;fontColor=#000000;" parent="1" vertex="1">
                    <mxGeometry x="705" y="119" width="129" height="80.63" as="geometry"/>
                </mxCell>
                <mxCell id="27" value="Requests Short URL" style="edgeStyle=none;html=1;exitX=1;exitY=0.25;exitDx=0;exitDy=0;entryX=0;entryY=0.25;entryDx=0;entryDy=0;" parent="1" source="3" target="30" edge="1">
                    <mxGeometry x="0.004" relative="1" as="geometry">
                        <mxPoint x="97.90000000000009" y="142.98000000000002" as="sourcePoint"/>
                        <mxPoint as="offset"/>
                        <mxPoint x="499" y="137" as="targetPoint"/>
                    </mxGeometry>
                </mxCell>
                <mxCell id="28" value="Receives Short URL" style="edgeStyle=none;html=1;exitX=0;exitY=0.75;exitDx=0;exitDy=0;entryX=1;entryY=0.75;entryDx=0;entryDy=0;" parent="1" source="30" target="3" edge="1">
                    <mxGeometry x="0.006" relative="1" as="geometry">
                        <mxPoint x="499" y="179" as="sourcePoint"/>
                        <mxPoint x="347" y="179" as="targetPoint"/>
                        <mxPoint as="offset"/>
                    </mxGeometry>
                </mxCell>
                <mxCell id="30" value="API" style="shape=image;verticalLabelPosition=bottom;verticalAlign=top;imageAspect=0;aspect=fixed;image=data:image/svg+xml,PHN2ZyB4bWxuczp4bGluaz0iaHR0cDovL3d3dy53My5vcmcvMTk5OS94bGluayIgeG1sbnM9Imh0dHA6Ly93d3cudzMub3JnLzIwMDAvc3ZnIiBzdHJva2UtbGluZWpvaW49InJvdW5kIiBzdHJva2UtbGluZWNhcD0icm91bmQiIHN0cm9rZT0iIzAwMCIgZmlsbC1ydWxlPSJldmVub2RkIiBmaWxsPSIjZmZmIiB2aWV3Qm94PSIwIDAgODIgODEiPjx1c2UgeT0iLjUiIHg9Ii41IiB4bGluazpocmVmPSIjQSIvPjxzeW1ib2wgb3ZlcmZsb3c9InZpc2libGUiIGlkPSJBIj48ZyBzdHJva2U9Im5vbmUiPjxwYXRoIGZpbGw9IiM1OWI0ZDkiIGQ9Ik02NC4zMDkgNzEuNzU3QzU3LjA2MSA3Ny4zIDQ4LjUyMSA4MCA0MC4wNDEgODBjLTEyLjAzMiAwLTIzLjkzLTUuNDAzLTMxLjc5Mi0xNS42ODhDLTUuMTg0IDQ2Ljc2OS0xLjg2OSAyMS42ODEgMTUuNzAyIDguMjM5IDIyLjk0OSAyLjY2MSAzMS40OTcgMCAzOS45NjYgMGMxMi4wMzIgMCAyMy45MzMgNS40MDMgMzEuNzkyIDE1LjY5OCAxMy40MzcgMTcuNTM4IDEwLjA4OCA0Mi42MzEtNy40NSA1Ni4wNTkiLz48cGF0aCBkPSJNNTYuOTYgNDcuMDE0YzIuOTA2IDMuNzkgOC4yOTggNC40NzUgMTIuMDY2IDEuNjA3LjE5Ny0uMTUuMzQ5LS4zMzMuNTI4LS40OTVsOC4wNCA1LjUzNWMuNDQ2LTEuMTU3Ljc1NS0yLjI2OCAxLjA3Mi0zLjQyOC0xLjU5NC0xLjE4Ni0zLjc0OS0yLjg0NS02Ljg2NC01LjM3MSAxLjAyMi0yLjY4OC42OTktNS44MjUtMS4xNjgtOC4yNzUtMi42Ny0zLjQ1Ny03LjQwMi00LjMzNS0xMS4wOTgtMi4yMDQtNC4wNzQtMy42NTUtOC41NDktNy44NDUtMTMuMjY5LTEyLjUzNSAxNC42NjQtNy44ODggMjUuMDgxLTYuNzMzIDI1LjA4MS02LjczMy0xLjczOS0yLjIxOC0zLjY4OC00LjE2MS01Ljc3LTUuOTE2LTYuMTg0LS45NTUtMTUuNzktLjg0OC0yNi43NjYgNC45OTFsLS4wMDMtLjAwNWgtLjAwMWMtMy42NTgtMy44My03LjM4MS03LjkzNC0xMS4xNzMtMTIuMzQyYTM3LjIxIDM3LjIxIDAgMCAwLTUuMjk5IDIuMTU2YzIuNzk4IDQuNTggNi41NjMgOS4yIDEwLjgwNiAxMy43MDdoMGMuMDA4LjAxLjAxOC4wMTguMDI3LjAyNy0zLjUzOCAyLjQ3NC03LjQ3NyA1Ljc4Mi0xMS4xMTEgOS42MjZhNjAuNDUgNjAuNDUgMCAwIDAtMS4zNDcgMS40OSAxMi4wNyAxMi4wNyAwIDAgMC02LjU4Ny40NTFjLTMuNjIzLTcuODE4LTMuMzMxLTE0LjA5Ny0yLjc1OS0xNy4zMzUtMS41NzMgMS42NDgtMy4wNDIgMy4zODItNC4zMDcgNS4yMjgtLjk0NSAzLjg2NS0xLjIxNCA5LjQzOSAxLjU3NiAxNi4xNTUtMy4yMyA0LjIyOC0zLjM4MiAxMC4yMjQtLjAwOCAxNC42NDguMjgyLjM2Ny41ODIuNzA3Ljg5NCAxLjAzMi0xLjQ3NCA1LjAyLTIuMTMzIDkuODYzLTIuMzM2IDE0LjAyLjM3OS41MTUuMzc5LjkzMS43NTUgMS40MzQgMS45MTkgMi40NjEgNC4zMjggNC41MzUgNi42NTYgNi40MTQtLjI4OC00LjQwMS4wMjItMTAuODkyIDIuNzQyLTE4LjE5OSAxLjg3Ny4xNDIgMy43ODYtLjE1NCA1LjU3My0uOTA2IDEuMDI0LjkwMSAyLjA5NiAxLjgxMiAzLjI0IDIuNzM4IDMuOTI1IDMuMTA4IDcuODQgNS41MjYgMTEuNjU2IDcuNDMtLjE5OSAxLjk0MS4yODggMy45NTkgMS41NDkgNS42MyAyLjY5NiAzLjQ4MiA3LjY4OCA0LjEzMiAxMS4xNzMgMS40NzEuNzI1LS41NTUgMS4yOTgtMS4yMjYgMS43NzMtMS45NDYgNi4yMjIgMS4zODYgMTEuNjU5IDEuNjMxIDE1LjY5IDEuNjMxLjYxNyAwIDMuNDgzLTMuODk4IDUuMTI1LTYuMzE1LTIuNDU0LjUxNC05LjczMyAxLjUxNC0xOS42OC0xLjM0NC0uMjQtMS4xMTctLjY5OS0yLjIwMi0xLjQzNy0zLjE2OS0yLjUyNi0zLjMxMy03LjE0NS00LjAzLTEwLjU4OS0xLjgxMy0zLjQ1OC0xLjg3Ni03LjA3OC00LjIyNi0xMC44MTMtNy4xODVhNzQuNDEgNzQuNDEgMCAwIDEtMi4xNzQtMS43ODkgMTIuMTMgMTIuMTMgMCAwIDAgLjUwOS0xMi4wODJsMS4zOTQtMS4zNzFjMy42OTgtMy40NTUgNy4xNzYtNi4yMiAxMC40My04LjQ0LS4xMzEtLjEyMi0uMjUtLjI1LS4zNzgtLjM3M2wuMzgyLjM2M2M0Ljk5IDQuNjIgMTAuMjg1IDguOTk3IDE1LjI5OSAxMi45MDgtMS4zMjYgMi44MTMtMS4xMTggNi4yNC44OTkgOC44Nzd6Ii8+PC9nPjwvc3ltYm9sPjwvc3ZnPg==" parent="1" vertex="1">
                    <mxGeometry x="504" y="120" width="82" height="81" as="geometry"/>
                </mxCell>
                <mxCell id="31" value="&lt;font style=&quot;font-size: 16px;&quot;&gt;&lt;b&gt;Url Shortener - Basic Architecture&lt;br&gt;&lt;/b&gt;&lt;/font&gt;piers-sinclair.com" style="text;html=1;strokeColor=none;fillColor=none;align=center;verticalAlign=middle;whiteSpace=wrap;rounded=0;" parent="1" vertex="1">
                    <mxGeometry x="25" y="87" width="321" height="30" as="geometry"/>
                </mxCell>
            </root>
        </mxGraphModel>
    </diagram>
</mxfile>